<svg id="Grupo_1012650" data-name="Grupo 1012650" xmlns="http://www.w3.org/2000/svg" xmlns:xlink="http://www.w3.org/1999/xlink" width="820" height="215.493" viewBox="0 0 820 215.493">
  <defs>
    <clipPath id="clip-path">
      <rect id="Rectángulo_350645" data-name="Rectángulo 350645" width="820" height="215.493" fill="none"/>
    </clipPath>
    <clipPath id="clip-path-3">
      <rect id="Rectángulo_350618" data-name="Rectángulo 350618" width="231.513" height="68.902" fill="none"/>
    </clipPath>
    <clipPath id="clip-path-4">
      <rect id="Rectángulo_350621" data-name="Rectángulo 350621" width="231.513" height="67.84" fill="none"/>
    </clipPath>
  </defs>
  <g id="Grupo_1012649" data-name="Grupo 1012649" clip-path="url(#clip-path)">
    <g id="Grupo_1012648" data-name="Grupo 1012648">
      <g id="Grupo_1012647" data-name="Grupo 1012647" clip-path="url(#clip-path)">
        <rect id="Rectángulo_350616" data-name="Rectángulo 350616" width="229.061" height="66.45" rx="6" transform="translate(295.47 1.226)" fill="#3076b6"/>
        <g id="Grupo_1012637" data-name="Grupo 1012637" transform="translate(294.244)" opacity="0">
          <g id="Grupo_1012636" data-name="Grupo 1012636">
            <g id="Grupo_1012635" data-name="Grupo 1012635" clip-path="url(#clip-path-3)">
              <rect id="Rectángulo_350617" data-name="Rectángulo 350617" width="229.061" height="66.45" rx="6" transform="translate(1.226 1.226)" fill="none" stroke="#000" stroke-width="3"/>
            </g>
          </g>
        </g>
        <path id="Trazado_727654" data-name="Trazado 727654" d="M483.677,38.006c0,2.947-2.274,4.546-5.385,4.5h-2.566v5H472.8V33.3h5.542c3.151.049,5.336,1.629,5.336,4.7m-2.956.02a2.2,2.2,0,0,0-2.312-2.351h-2.683v4.459h2.615c1.473.01,2.38-.692,2.38-2.107" transform="translate(-86.36 -6.083)" fill="#fff"/>
        <path id="Trazado_727655" data-name="Trazado 727655" d="M499.062,35.674h-4.351V47.508h-2.927V35.674h-4.293V33.3h11.57Z" transform="translate(-89.043 -6.083)" fill="#fff"/>
        <path id="Trazado_727656" data-name="Trazado 727656" d="M510.007,44.581h-5.131l-.975,2.927h-3.112l5.287-14.2h2.712l5.317,14.2h-3.112Zm-4.341-2.37s3.11,1.329,3.551,0-1.786-5.317-1.786-5.317" transform="translate(-91.472 -6.083)" fill="#fff"/>
        <path id="Trazado_727657" data-name="Trazado 727657" d="M529.231,37.6a3.935,3.935,0,0,1-2.537,3.97l3.073,5.8v.136h-3.141l-2.664-5.2h-2.331v5.2H518.7V33.3h5.278c3.1-.029,5.249,1.376,5.249,4.293m-2.927.234a2.023,2.023,0,0,0-2.322-2.156h-2.351v4.263h2.36A2.025,2.025,0,0,0,526.3,37.83" transform="translate(-94.745 -6.083)" fill="#fff"/>
        <rect id="Rectángulo_350619" data-name="Rectángulo 350619" width="229.061" height="65.387" rx="6" transform="translate(1.226 148.879)" fill="#4db1f0"/>
        <g id="Grupo_1012640" data-name="Grupo 1012640" transform="translate(0 147.653)" opacity="0">
          <g id="Grupo_1012639" data-name="Grupo 1012639">
            <g id="Grupo_1012638" data-name="Grupo 1012638" clip-path="url(#clip-path-4)">
              <rect id="Rectángulo_350620" data-name="Rectángulo 350620" width="229.061" height="65.387" rx="6" transform="translate(1.226 1.226)" fill="none" stroke="#000" stroke-width="3"/>
            </g>
          </g>
        </g>
        <path id="Trazado_727658" data-name="Trazado 727658" d="M71.107,227.608H68.712v-4.981H64.043v4.981H61.649V215.986h2.394v4.71h4.669v-4.71h2.395Z" transform="translate(-11.261 -39.451)"/>
        <path id="Trazado_727659" data-name="Trazado 727659" d="M78.391,228.434c-1.924-.008-2.866-1.174-2.866-3.137v-5.659h2.307v5.579c0,.9.407,1.349,1.229,1.349a1.669,1.669,0,0,0,1.613-.814v-6.115h2.315v8.637H80.817l-.064-.879a2.883,2.883,0,0,1-2.363,1.038" transform="translate(-13.795 -40.118)"/>
        <path id="Trazado_727660" data-name="Trazado 727660" d="M91.814,222.739c-.017-.99-.32-1.413-1.3-1.421a1.5,1.5,0,0,0-1.421.814v6.106H86.785V219.6h2.163l.072.966a3.035,3.035,0,0,1,2.482-1.126,2.306,2.306,0,0,1,2.291,1.317,2.962,2.962,0,0,1,2.594-1.317c1.988,0,2.777,1.2,2.777,3.28v5.516H96.85v-5.508c-.016-.982-.311-1.4-1.3-1.412a1.431,1.431,0,0,0-1.436.99l.007,5.931H91.814Z" transform="translate(-15.852 -40.083)"/>
        <path id="Trazado_727661" data-name="Trazado 727661" d="M111.373,226.842A4.032,4.032,0,0,1,108,228.4a4.1,4.1,0,0,1-4.286-4.494c.1-2.633,1.436-4.462,4.03-4.462,2.467,0,3.847,1.708,3.807,4.286v.942h-5.5a2.03,2.03,0,0,0,2.1,1.868,2.49,2.49,0,0,0,2.083-.966Zm-2.083-3.743c.04-1.109-.494-1.8-1.549-1.788-1.037.008-1.524.775-1.66,1.788h3.209" transform="translate(-18.944 -40.083)"/>
        <path id="Trazado_727662" data-name="Trazado 727662" d="M117.839,227.624c-2.267,0-3.368-2.028-3.368-4.542,0-2.435,1.117-4.4,3.384-4.414a2.643,2.643,0,0,1,2.083.942V215.2h2.315v12.26H120.17l-.111-.918a2.719,2.719,0,0,1-2.219,1.078m-1.062-4.374c0,1.4.407,2.506,1.652,2.506a1.552,1.552,0,0,0,1.509-.9v-3.408a1.523,1.523,0,0,0-1.492-.9c-1.109,0-1.668.9-1.668,2.706" transform="translate(-20.909 -39.308)"/>
        <path id="Trazado_727663" data-name="Trazado 727663" d="M129.623,219.443c2.028-.032,3.472,1.07,3.472,3.057v3.743a4.177,4.177,0,0,0,.343,1.86v.136h-2.33a2.605,2.605,0,0,1-.231-.774,2.8,2.8,0,0,1-2.18.933,2.722,2.722,0,0,1-2.937-2.586c.04-2.059,1.692-2.849,3.958-2.849h1.062c.088-1.094-.231-1.812-1.277-1.812-.718,0-1.246.359-1.246,1.045h-2.307c.12-1.844,1.7-2.73,3.672-2.754m-1.556,6.2a1.02,1.02,0,0,0,1.134.99,1.779,1.779,0,0,0,1.58-.838v-1.485h-.861c-1.214.016-1.852.407-1.852,1.333" transform="translate(-22.971 -40.082)"/>
        <path id="Trazado_727664" data-name="Trazado 727664" d="M139.831,227.624c-2.267,0-3.368-2.028-3.368-4.542,0-2.435,1.117-4.4,3.384-4.414a2.643,2.643,0,0,1,2.083.942V215.2h2.315v12.26h-2.083l-.111-.918a2.719,2.719,0,0,1-2.219,1.078m-1.062-4.374c0,1.4.407,2.506,1.652,2.506a1.552,1.552,0,0,0,1.509-.9v-3.408a1.523,1.523,0,0,0-1.492-.9c-1.109,0-1.668.9-1.668,2.706" transform="translate(-24.926 -39.308)"/>
        <path id="Trazado_727665" data-name="Trazado 727665" d="M156.081,227.624c-2.267,0-3.368-2.028-3.368-4.542,0-2.435,1.117-4.4,3.384-4.414a2.643,2.643,0,0,1,2.083.942V215.2h2.315v12.26h-2.083l-.111-.918a2.719,2.719,0,0,1-2.219,1.078m-1.062-4.374c0,1.4.407,2.506,1.652,2.506a1.552,1.552,0,0,0,1.509-.9v-3.408a1.523,1.523,0,0,0-1.492-.9c-1.109,0-1.668.9-1.668,2.706" transform="translate(-27.894 -39.308)"/>
        <path id="Trazado_727666" data-name="Trazado 727666" d="M171.695,226.842a4.032,4.032,0,0,1-3.368,1.556,4.1,4.1,0,0,1-4.286-4.494c.1-2.633,1.436-4.462,4.03-4.462,2.467,0,3.847,1.708,3.807,4.286v.942h-5.5a2.03,2.03,0,0,0,2.1,1.868,2.49,2.49,0,0,0,2.083-.966Zm-2.083-3.743c.04-1.109-.494-1.8-1.549-1.788-1.037.008-1.524.775-1.66,1.788h3.209" transform="translate(-29.962 -40.083)"/>
        <rect id="Rectángulo_350622" data-name="Rectángulo 350622" width="2.315" height="12.26" transform="translate(143.345 175.896)"/>
        <rect id="Rectángulo_350623" data-name="Rectángulo 350623" width="2.315" height="12.26" transform="translate(151.75 175.896)"/>
        <path id="Trazado_727667" data-name="Trazado 727667" d="M194.473,228.4c-2.571,0-4.159-1.868-4.095-4.557.064-2.642,1.452-4.4,4.079-4.4,2.586,0,4.1,1.844,4.1,4.566,0,2.546-1.581,4.39-4.087,4.39m-.016-7.088c-1.349,0-1.772,1.125-1.772,2.7,0,1.444.487,2.53,1.788,2.53,1.357,0,1.779-1.093,1.779-2.7,0-1.421-.511-2.531-1.8-2.531" transform="translate(-34.774 -40.083)"/>
        <path id="Trazado_727668" data-name="Trazado 727668" d="M205.056,227.624c-2.267,0-3.368-2.028-3.368-4.542,0-2.435,1.117-4.4,3.384-4.414a2.643,2.643,0,0,1,2.083.942V215.2h2.315v12.26h-2.083l-.111-.918a2.719,2.719,0,0,1-2.219,1.078m-1.062-4.374c0,1.4.407,2.506,1.652,2.506a1.552,1.552,0,0,0,1.509-.9v-3.408a1.523,1.523,0,0,0-1.492-.9c-1.109,0-1.668.9-1.668,2.706" transform="translate(-36.84 -39.308)"/>
        <path id="Trazado_727669" data-name="Trazado 727669" d="M217.051,228.4c-2.571,0-4.159-1.868-4.095-4.557.064-2.642,1.452-4.4,4.079-4.4,2.586,0,4.1,1.844,4.1,4.566,0,2.546-1.581,4.39-4.087,4.39m-.016-7.088c-1.349,0-1.772,1.125-1.772,2.7,0,1.444.487,2.53,1.788,2.53,1.357,0,1.779-1.093,1.779-2.7,0-1.421-.511-2.531-1.8-2.531" transform="translate(-38.898 -40.083)"/>
        <rect id="Rectángulo_350624" data-name="Rectángulo 350624" width="229.061" height="65.387" rx="6" transform="translate(295.47 148.879)" fill="#4db1f0"/>
        <g id="Grupo_1012643" data-name="Grupo 1012643" transform="translate(294.244 147.653)" opacity="0">
          <g id="Grupo_1012642" data-name="Grupo 1012642">
            <g id="Grupo_1012641" data-name="Grupo 1012641" clip-path="url(#clip-path-4)">
              <rect id="Rectángulo_350625" data-name="Rectángulo 350625" width="229.061" height="65.387" rx="6" transform="translate(1.226 1.226)" fill="none" stroke="#000" stroke-width="3"/>
            </g>
          </g>
        </g>
        <path id="Trazado_727670" data-name="Trazado 727670" d="M396.038,213.607V201.986h3.576c3.472.111,5.372,2.387,5.309,6.082a5.413,5.413,0,0,1-2.547,4.837,5.518,5.518,0,0,1-2.737.7Zm6.458-5.467c.071-2.482-.631-4.2-2.882-4.214h-1.182v7.758h1.157c2.012-.016,2.843-1.445,2.906-3.544" transform="translate(-72.339 -36.894)"/>
        <path id="Trazado_727671" data-name="Trazado 727671" d="M416.124,212.842a4.032,4.032,0,0,1-3.368,1.556,4.1,4.1,0,0,1-4.286-4.494c.1-2.633,1.436-4.462,4.03-4.462,2.467,0,3.847,1.708,3.807,4.286v.942h-5.5a2.03,2.03,0,0,0,2.1,1.868,2.49,2.49,0,0,0,2.083-.966ZM414.04,209.1c.04-1.109-.495-1.8-1.549-1.788-1.037.008-1.524.775-1.66,1.788h3.209" transform="translate(-74.609 -37.525)"/>
        <path id="Trazado_727672" data-name="Trazado 727672" d="M424.75,208.716c-.008-.99-.383-1.389-1.38-1.4a1.6,1.6,0,0,0-1.461.83v6.09H419.6V205.6h2.171l.072,1a3.006,3.006,0,0,1,2.482-1.157c1.948,0,2.73,1.206,2.73,3.217v5.579H424.75Z" transform="translate(-76.643 -37.525)"/>
        <path id="Trazado_727673" data-name="Trazado 727673" d="M434.1,212.762c.75,0,1.341-.263,1.341-.91a.742.742,0,0,0-.423-.663,4.829,4.829,0,0,0-1.341-.439q-3.076-.646-3.081-2.618c0-1.66,1.62-2.69,3.448-2.69,1.963,0,3.6.99,3.615,2.786h-2.307c-.016-.727-.494-1.141-1.317-1.141-.687,0-1.206.327-1.221.933a.717.717,0,0,0,.367.615,20.646,20.646,0,0,0,2.674.8,2.429,2.429,0,0,1,1.828,2.323c0,2.378-3.385,3.224-5.555,2.258a2.849,2.849,0,0,1-1.8-2.522h2.187c.039.846.686,1.269,1.588,1.269" transform="translate(-78.602 -37.525)"/>
        <path id="Trazado_727674" data-name="Trazado 727674" d="M443.576,213.51h-2.315v-8.636h2.315Zm-1.157-9.674a1.206,1.206,0,0,1-1.293-1.2,1.3,1.3,0,0,1,2.586,0,1.206,1.206,0,0,1-1.293,1.2" transform="translate(-80.574 -36.796)"/>
        <path id="Trazado_727675" data-name="Trazado 727675" d="M449.377,213.624c-2.267,0-3.368-2.028-3.368-4.542,0-2.435,1.117-4.4,3.384-4.414a2.643,2.643,0,0,1,2.083.942V201.2h2.315v12.26h-2.083l-.111-.918a2.719,2.719,0,0,1-2.219,1.078m-1.062-4.374c0,1.4.407,2.506,1.652,2.506a1.552,1.552,0,0,0,1.509-.9v-3.408a1.523,1.523,0,0,0-1.492-.9c-1.109,0-1.668.9-1.668,2.706" transform="translate(-81.466 -36.751)"/>
        <path id="Trazado_727676" data-name="Trazado 727676" d="M461.161,205.443c2.028-.032,3.472,1.07,3.472,3.057v3.743a4.176,4.176,0,0,0,.343,1.86v.136h-2.33a2.6,2.6,0,0,1-.231-.774,2.8,2.8,0,0,1-2.18.933,2.722,2.722,0,0,1-2.937-2.586c.04-2.059,1.692-2.849,3.958-2.849h1.062c.088-1.094-.231-1.812-1.277-1.812-.718,0-1.246.359-1.246,1.045h-2.307c.12-1.844,1.7-2.73,3.671-2.754m-1.556,6.2a1.02,1.02,0,0,0,1.134.99,1.779,1.779,0,0,0,1.58-.838v-1.485h-.861c-1.214.016-1.852.407-1.852,1.333" transform="translate(-83.528 -37.525)"/>
        <path id="Trazado_727677" data-name="Trazado 727677" d="M471.369,213.624c-2.267,0-3.368-2.028-3.368-4.542,0-2.435,1.117-4.4,3.384-4.414a2.643,2.643,0,0,1,2.083.942V201.2h2.315v12.26H473.7l-.111-.918a2.719,2.719,0,0,1-2.219,1.078m-1.062-4.374c0,1.4.407,2.506,1.652,2.506a1.552,1.552,0,0,0,1.509-.9v-3.408a1.523,1.523,0,0,0-1.492-.9c-1.109,0-1.668.9-1.668,2.706" transform="translate(-85.483 -36.751)"/>
        <path id="Trazado_727678" data-name="Trazado 727678" d="M489.544,207.766c-1.141-.191-2.227.008-2.546.822v5.651h-2.307V205.6h2.179l.064,1.029a2.16,2.16,0,0,1,2.642-1.085" transform="translate(-88.532 -37.526)"/>
        <path id="Trazado_727679" data-name="Trazado 727679" d="M499.073,212.842A4.032,4.032,0,0,1,495.7,214.4a4.1,4.1,0,0,1-4.286-4.494c.1-2.633,1.436-4.462,4.03-4.462,2.467,0,3.847,1.708,3.807,4.286v.942h-5.5a2.03,2.03,0,0,0,2.1,1.868,2.49,2.49,0,0,0,2.083-.966Zm-2.083-3.743c.04-1.109-.494-1.8-1.549-1.788-1.037.008-1.524.775-1.66,1.788h3.209" transform="translate(-89.76 -37.525)"/>
        <rect id="Rectángulo_350627" data-name="Rectángulo 350627" width="2.315" height="12.26" transform="translate(410.925 164.454)"/>
        <path id="Trazado_727680" data-name="Trazado 727680" d="M511.356,205.443c2.028-.032,3.472,1.07,3.472,3.057v3.743a4.175,4.175,0,0,0,.343,1.86v.136h-2.33a2.6,2.6,0,0,1-.231-.774,2.8,2.8,0,0,1-2.18.933,2.722,2.722,0,0,1-2.937-2.586c.04-2.059,1.692-2.849,3.958-2.849h1.062c.088-1.094-.231-1.812-1.277-1.812-.718,0-1.246.359-1.246,1.045h-2.307c.12-1.844,1.7-2.73,3.672-2.754m-1.556,6.2a1.02,1.02,0,0,0,1.134.99,1.779,1.779,0,0,0,1.58-.838v-1.485h-.861c-1.214.016-1.852.407-1.852,1.333" transform="translate(-92.697 -37.525)"/>
        <path id="Trazado_727681" data-name="Trazado 727681" d="M521.218,211.166c.016.663.2.886.886.894a3.468,3.468,0,0,0,.678-.056v1.748a4.853,4.853,0,0,1-1.4.208,2.187,2.187,0,0,1-2.474-2.45v-4.653H517.65v-1.693h1.261v-2.123h2.307v2.123h1.477v1.693h-1.477Z" transform="translate(-94.552 -37.087)"/>
        <path id="Trazado_727682" data-name="Trazado 727682" d="M527.824,213.51H525.51v-8.636h2.315Zm-1.157-9.674a1.206,1.206,0,0,1-1.293-1.2,1.3,1.3,0,0,1,2.586,0,1.206,1.206,0,0,1-1.293,1.2" transform="translate(-95.963 -36.796)"/>
        <path id="Trazado_727683" data-name="Trazado 727683" d="M533.754,211.457l1.6-5.819h2.41l-2.913,8.636h-2.2l-2.913-8.636h2.41" transform="translate(-96.76 -37.561)"/>
        <path id="Trazado_727684" data-name="Trazado 727684" d="M544.1,205.443c2.028-.032,3.472,1.07,3.472,3.057v3.743a4.177,4.177,0,0,0,.343,1.86v.136h-2.33a2.607,2.607,0,0,1-.231-.774,2.8,2.8,0,0,1-2.18.933,2.722,2.722,0,0,1-2.937-2.586c.04-2.059,1.692-2.849,3.958-2.849h1.062c.088-1.094-.231-1.812-1.277-1.812-.718,0-1.246.359-1.246,1.045h-2.307c.12-1.844,1.7-2.73,3.672-2.754m-1.556,6.2a1.02,1.02,0,0,0,1.134.99,1.779,1.779,0,0,0,1.58-.838v-1.485H544.4c-1.214.016-1.852.407-1.852,1.333" transform="translate(-98.678 -37.525)"/>
        <path id="Trazado_727685" data-name="Trazado 727685" d="M559.289,213.624c-2.267,0-3.368-2.028-3.368-4.542,0-2.435,1.117-4.4,3.384-4.414a2.643,2.643,0,0,1,2.083.942V201.2H563.7v12.26H561.62l-.111-.918a2.719,2.719,0,0,1-2.219,1.078m-1.062-4.374c0,1.4.407,2.506,1.652,2.506a1.552,1.552,0,0,0,1.509-.9v-3.408a1.523,1.523,0,0,0-1.492-.9c-1.109,0-1.668.9-1.668,2.706" transform="translate(-101.543 -36.751)"/>
        <path id="Trazado_727686" data-name="Trazado 727686" d="M574.9,212.842a4.032,4.032,0,0,1-3.368,1.556,4.1,4.1,0,0,1-4.286-4.494c.1-2.633,1.436-4.462,4.03-4.462,2.467,0,3.847,1.708,3.807,4.286v.942h-5.5a2.03,2.03,0,0,0,2.1,1.868,2.49,2.49,0,0,0,2.083-.966Zm-2.083-3.743c.04-1.109-.494-1.8-1.549-1.788-1.037.008-1.524.775-1.66,1.788h3.209" transform="translate(-103.611 -37.525)"/>
        <rect id="Rectángulo_350628" data-name="Rectángulo 350628" width="2.315" height="12.26" transform="translate(476.975 164.454)"/>
        <path id="Trazado_727687" data-name="Trazado 727687" d="M592.378,214.4c-2.571,0-4.159-1.868-4.095-4.558.064-2.642,1.452-4.4,4.079-4.4,2.586,0,4.1,1.844,4.1,4.566,0,2.546-1.581,4.39-4.087,4.39m-.016-7.088c-1.349,0-1.772,1.125-1.772,2.7,0,1.444.487,2.53,1.788,2.53,1.357,0,1.779-1.093,1.779-2.7,0-1.421-.511-2.531-1.8-2.531" transform="translate(-107.453 -37.525)"/>
        <path id="Trazado_727688" data-name="Trazado 727688" d="M603.27,212.762c.75,0,1.341-.263,1.341-.91a.742.742,0,0,0-.423-.663,4.828,4.828,0,0,0-1.341-.439q-3.076-.646-3.081-2.618c0-1.66,1.62-2.69,3.448-2.69,1.963,0,3.6.99,3.615,2.786h-2.307c-.016-.727-.495-1.141-1.317-1.141-.687,0-1.206.327-1.221.933a.717.717,0,0,0,.367.615,20.645,20.645,0,0,0,2.674.8,2.429,2.429,0,0,1,1.828,2.323c0,2.378-3.385,3.224-5.555,2.258a2.849,2.849,0,0,1-1.8-2.522h2.187c.039.846.686,1.269,1.588,1.269" transform="translate(-109.502 -37.525)"/>
        <path id="Trazado_727689" data-name="Trazado 727689" d="M451.674,236.2c.75,0,1.341-.263,1.341-.91a.742.742,0,0,0-.423-.663,4.829,4.829,0,0,0-1.341-.439q-3.076-.646-3.081-2.618c0-1.66,1.62-2.69,3.448-2.69,1.963,0,3.6.99,3.615,2.785h-2.307c-.016-.727-.494-1.141-1.317-1.141-.687,0-1.206.327-1.221.933a.716.716,0,0,0,.367.615,20.648,20.648,0,0,0,2.673.8,2.429,2.429,0,0,1,1.828,2.323c0,2.378-3.385,3.224-5.556,2.258a2.849,2.849,0,0,1-1.8-2.522h2.187c.039.846.686,1.269,1.588,1.269" transform="translate(-81.812 -41.806)"/>
        <path id="Trazado_727690" data-name="Trazado 727690" d="M462.374,237.062c-2.571,0-4.159-1.868-4.095-4.558.064-2.642,1.452-4.4,4.079-4.4,2.586,0,4.1,1.844,4.1,4.566,0,2.546-1.581,4.39-4.087,4.39m-.016-7.088c-1.349,0-1.772,1.125-1.772,2.7,0,1.445.487,2.53,1.788,2.53,1.357,0,1.78-1.094,1.78-2.7,0-1.421-.511-2.53-1.8-2.53m.455-5.332h2.514l-2.211,2.474H461.24" transform="translate(-83.707 -41.032)"/>
        <rect id="Rectángulo_350629" data-name="Rectángulo 350629" width="2.315" height="12.26" transform="translate(384.294 183.61)"/>
        <path id="Trazado_727691" data-name="Trazado 727691" d="M477.761,236.947h-2.315v-8.636h2.315Zm-1.157-9.674a1.206,1.206,0,0,1-1.293-1.2,1.3,1.3,0,0,1,2.586,0,1.206,1.206,0,0,1-1.293,1.2" transform="translate(-86.819 -41.077)"/>
        <path id="Trazado_727692" data-name="Trazado 727692" d="M483.562,237.062c-2.267,0-3.368-2.028-3.368-4.542,0-2.435,1.117-4.4,3.384-4.414a2.643,2.643,0,0,1,2.083.942v-4.406h2.315V236.9h-2.083l-.111-.918a2.719,2.719,0,0,1-2.219,1.078m-1.062-4.374c0,1.405.407,2.506,1.652,2.506a1.552,1.552,0,0,0,1.509-.9v-3.408a1.523,1.523,0,0,0-1.492-.9c-1.109,0-1.668.9-1.668,2.706" transform="translate(-87.711 -41.032)"/>
        <path id="Trazado_727693" data-name="Trazado 727693" d="M495.557,237.837c-2.571,0-4.159-1.868-4.095-4.558.064-2.642,1.452-4.4,4.079-4.4,2.586,0,4.1,1.844,4.1,4.566,0,2.546-1.581,4.39-4.087,4.39m-.016-7.088c-1.349,0-1.772,1.125-1.772,2.7,0,1.444.487,2.53,1.788,2.53,1.357,0,1.779-1.093,1.779-2.7,0-1.421-.511-2.53-1.8-2.53" transform="translate(-89.768 -41.807)"/>
        <path id="Trazado_727694" data-name="Trazado 727694" d="M506.449,236.2c.75,0,1.341-.263,1.341-.91a.742.742,0,0,0-.423-.663,4.829,4.829,0,0,0-1.341-.439q-3.076-.646-3.081-2.618c0-1.66,1.62-2.69,3.448-2.69,1.963,0,3.6.99,3.615,2.785H507.7c-.016-.727-.495-1.141-1.317-1.141-.687,0-1.206.327-1.221.933a.717.717,0,0,0,.367.615,20.644,20.644,0,0,0,2.674.8,2.429,2.429,0,0,1,1.828,2.323c0,2.378-3.385,3.224-5.555,2.258a2.85,2.85,0,0,1-1.8-2.522h2.187c.039.846.686,1.269,1.588,1.269" transform="translate(-91.817 -41.806)"/>
        <path id="Trazado_727695" data-name="Trazado 727695" d="M518.959,227.493c-.087-2.363,1.948-3.512,4.342-2.9l-.024,1.788a2.9,2.9,0,0,0-.7-.072c-.87,0-1.3.407-1.3,1.221v.694h1.716v1.693h-1.716v6.944h-2.315V229.92h-1.285v-1.693h1.285Z" transform="translate(-94.556 -40.994)"/>
        <path id="Trazado_727696" data-name="Trazado 727696" d="M528.073,236.947h-2.315v-8.636h2.315Zm-1.157-9.674a1.206,1.206,0,0,1-1.293-1.2,1.3,1.3,0,0,1,2.586,0,1.206,1.206,0,0,1-1.293,1.2" transform="translate(-96.008 -41.077)"/>
        <path id="Trazado_727697" data-name="Trazado 727697" d="M533.021,237.418a2.707,2.707,0,0,1-2.946,3.018,4.823,4.823,0,0,1-1.141-.136v-1.828c.974.216,1.772.008,1.772-1.037v-9.123h2.315Zm-1.206-10.145a1.206,1.206,0,0,1-1.293-1.2,1.3,1.3,0,0,1,2.586,0,1.206,1.206,0,0,1-1.293,1.2" transform="translate(-96.613 -41.077)"/>
        <path id="Trazado_727698" data-name="Trazado 727698" d="M539.8,237.837c-2.571,0-4.159-1.868-4.095-4.558.064-2.642,1.452-4.4,4.079-4.4,2.586,0,4.1,1.844,4.1,4.566,0,2.546-1.581,4.39-4.087,4.39m-.016-7.088c-1.349,0-1.772,1.125-1.772,2.7,0,1.444.487,2.53,1.788,2.53,1.357,0,1.779-1.093,1.779-2.7,0-1.421-.511-2.53-1.8-2.53" transform="translate(-97.849 -41.807)"/>
        <path id="Trazado_727699" data-name="Trazado 727699" d="M550.687,236.2c.75,0,1.341-.263,1.341-.91a.742.742,0,0,0-.423-.663,4.829,4.829,0,0,0-1.341-.439q-3.076-.646-3.081-2.618c0-1.66,1.62-2.69,3.448-2.69,1.963,0,3.6.99,3.615,2.785H551.94c-.016-.727-.494-1.141-1.317-1.141-.687,0-1.206.327-1.221.933a.717.717,0,0,0,.367.615,20.645,20.645,0,0,0,2.674.8,2.429,2.429,0,0,1,1.828,2.323c0,2.378-3.385,3.224-5.556,2.258a2.85,2.85,0,0,1-1.8-2.522H549.1c.039.846.686,1.269,1.588,1.269" transform="translate(-99.897 -41.806)"/>
        <rect id="Rectángulo_350630" data-name="Rectángulo 350630" width="229.061" height="65.387" rx="6" transform="translate(589.713 148.879)" fill="#4db1f0"/>
        <g id="Grupo_1012646" data-name="Grupo 1012646" transform="translate(588.487 147.653)" opacity="0">
          <g id="Grupo_1012645" data-name="Grupo 1012645">
            <g id="Grupo_1012644" data-name="Grupo 1012644" clip-path="url(#clip-path-4)">
              <rect id="Rectángulo_350631" data-name="Rectángulo 350631" width="229.061" height="65.387" rx="6" transform="translate(1.226 1.226)" fill="none" stroke="#000" stroke-width="3"/>
            </g>
          </g>
        </g>
        <path id="Trazado_727700" data-name="Trazado 727700" d="M756.038,213.607V201.986h3.576c3.472.111,5.372,2.387,5.308,6.082a5.411,5.411,0,0,1-2.546,4.837,5.522,5.522,0,0,1-2.738.7Zm6.457-5.467c.072-2.482-.63-4.2-2.881-4.214h-1.182v7.758h1.157c2.011-.016,2.842-1.445,2.906-3.544" transform="translate(-138.095 -36.894)"/>
        <path id="Trazado_727701" data-name="Trazado 727701" d="M776.124,212.842a4.033,4.033,0,0,1-3.368,1.556,4.1,4.1,0,0,1-4.286-4.494c.1-2.633,1.436-4.462,4.03-4.462,2.467,0,3.847,1.708,3.807,4.286v.942h-5.5a2.03,2.03,0,0,0,2.1,1.868,2.49,2.49,0,0,0,2.083-.966ZM774.04,209.1c.04-1.109-.494-1.8-1.549-1.788-1.037.008-1.524.775-1.66,1.788h3.209" transform="translate(-140.365 -37.525)"/>
        <path id="Trazado_727702" data-name="Trazado 727702" d="M784.75,208.716c-.008-.99-.383-1.389-1.381-1.4a1.6,1.6,0,0,0-1.461.83v6.09H779.6V205.6h2.171l.072,1a3.006,3.006,0,0,1,2.482-1.157c1.948,0,2.73,1.206,2.73,3.217v5.579H784.75Z" transform="translate(-142.399 -37.525)"/>
        <path id="Trazado_727703" data-name="Trazado 727703" d="M794.1,212.762c.75,0,1.341-.263,1.341-.91a.742.742,0,0,0-.423-.663,4.83,4.83,0,0,0-1.341-.439q-3.076-.646-3.081-2.618c0-1.66,1.62-2.69,3.448-2.69,1.963,0,3.6.99,3.615,2.786h-2.306c-.016-.727-.495-1.141-1.317-1.141-.687,0-1.206.327-1.221.933a.717.717,0,0,0,.367.615,20.645,20.645,0,0,0,2.674.8,2.429,2.429,0,0,1,1.828,2.323c0,2.378-3.385,3.224-5.556,2.258a2.849,2.849,0,0,1-1.8-2.522h2.187c.039.846.686,1.269,1.588,1.269" transform="translate(-144.358 -37.525)"/>
        <path id="Trazado_727704" data-name="Trazado 727704" d="M803.576,213.51h-2.315v-8.636h2.315Zm-1.157-9.674a1.206,1.206,0,0,1-1.293-1.2,1.3,1.3,0,0,1,2.586,0,1.206,1.206,0,0,1-1.293,1.2" transform="translate(-146.331 -36.796)"/>
        <path id="Trazado_727705" data-name="Trazado 727705" d="M809.377,213.624c-2.267,0-3.368-2.028-3.368-4.542,0-2.435,1.117-4.4,3.384-4.414a2.643,2.643,0,0,1,2.083.942V201.2h2.315v12.26h-2.083l-.111-.918a2.719,2.719,0,0,1-2.219,1.078m-1.062-4.374c0,1.4.407,2.506,1.652,2.506a1.552,1.552,0,0,0,1.509-.9v-3.408a1.523,1.523,0,0,0-1.492-.9c-1.109,0-1.668.9-1.668,2.706" transform="translate(-147.223 -36.751)"/>
        <path id="Trazado_727706" data-name="Trazado 727706" d="M821.161,205.443c2.028-.032,3.472,1.07,3.472,3.057v3.743a4.175,4.175,0,0,0,.343,1.86v.136h-2.33a2.6,2.6,0,0,1-.231-.774,2.8,2.8,0,0,1-2.18.933,2.722,2.722,0,0,1-2.937-2.586c.04-2.059,1.692-2.849,3.958-2.849h1.062c.088-1.094-.231-1.812-1.277-1.812-.718,0-1.246.359-1.246,1.045h-2.307c.12-1.844,1.7-2.73,3.672-2.754m-1.556,6.2a1.02,1.02,0,0,0,1.134.99,1.779,1.779,0,0,0,1.58-.838v-1.485h-.861c-1.214.016-1.852.407-1.852,1.333" transform="translate(-149.285 -37.525)"/>
        <path id="Trazado_727707" data-name="Trazado 727707" d="M831.369,213.624c-2.267,0-3.368-2.028-3.368-4.542,0-2.435,1.117-4.4,3.384-4.414a2.642,2.642,0,0,1,2.083.942V201.2h2.315v12.26H833.7l-.111-.918a2.719,2.719,0,0,1-2.219,1.078m-1.062-4.374c0,1.4.407,2.506,1.652,2.506a1.552,1.552,0,0,0,1.509-.9v-3.408a1.523,1.523,0,0,0-1.492-.9c-1.109,0-1.668.9-1.668,2.706" transform="translate(-151.24 -36.751)"/>
        <path id="Trazado_727708" data-name="Trazado 727708" d="M849.544,207.766c-1.141-.191-2.227.008-2.546.822v5.651h-2.307V205.6h2.179l.064,1.029a2.16,2.16,0,0,1,2.642-1.085" transform="translate(-154.288 -37.526)"/>
        <path id="Trazado_727709" data-name="Trazado 727709" d="M859.073,212.842A4.032,4.032,0,0,1,855.7,214.4a4.1,4.1,0,0,1-4.286-4.494c.1-2.633,1.436-4.462,4.03-4.462,2.467,0,3.847,1.708,3.807,4.286v.942h-5.5a2.03,2.03,0,0,0,2.1,1.868,2.49,2.49,0,0,0,2.083-.966Zm-2.083-3.743c.04-1.109-.494-1.8-1.549-1.788-1.037.008-1.524.775-1.66,1.788h3.209" transform="translate(-155.516 -37.525)"/>
        <rect id="Rectángulo_350633" data-name="Rectángulo 350633" width="2.315" height="12.26" transform="translate(705.169 164.454)"/>
        <path id="Trazado_727710" data-name="Trazado 727710" d="M871.356,205.443c2.028-.032,3.472,1.07,3.472,3.057v3.743a4.175,4.175,0,0,0,.343,1.86v.136h-2.33a2.6,2.6,0,0,1-.231-.774,2.8,2.8,0,0,1-2.18.933,2.722,2.722,0,0,1-2.937-2.586c.04-2.059,1.692-2.849,3.958-2.849h1.062c.088-1.094-.231-1.812-1.277-1.812-.718,0-1.246.359-1.246,1.045h-2.307c.12-1.844,1.7-2.73,3.672-2.754m-1.556,6.2a1.02,1.02,0,0,0,1.134.99,1.779,1.779,0,0,0,1.58-.838v-1.485h-.861c-1.214.016-1.852.407-1.852,1.333" transform="translate(-158.453 -37.525)"/>
        <path id="Trazado_727711" data-name="Trazado 727711" d="M881.218,211.166c.016.663.2.886.886.894a3.468,3.468,0,0,0,.678-.056v1.748a4.854,4.854,0,0,1-1.4.208,2.187,2.187,0,0,1-2.474-2.45v-4.653H877.65v-1.693h1.261v-2.123h2.307v2.123h1.477v1.693h-1.477Z" transform="translate(-160.308 -37.087)"/>
        <path id="Trazado_727712" data-name="Trazado 727712" d="M887.824,213.51H885.51v-8.636h2.315Zm-1.157-9.674a1.206,1.206,0,0,1-1.293-1.2,1.3,1.3,0,0,1,2.586,0,1.206,1.206,0,0,1-1.293,1.2" transform="translate(-161.719 -36.796)"/>
        <path id="Trazado_727713" data-name="Trazado 727713" d="M893.754,211.457l1.6-5.819h2.41l-2.913,8.636h-2.2l-2.913-8.636h2.41" transform="translate(-162.517 -37.561)"/>
        <path id="Trazado_727714" data-name="Trazado 727714" d="M904.1,205.443c2.028-.032,3.472,1.07,3.472,3.057v3.743a4.176,4.176,0,0,0,.343,1.86v.136h-2.33a2.605,2.605,0,0,1-.231-.774,2.8,2.8,0,0,1-2.18.933,2.722,2.722,0,0,1-2.937-2.586c.04-2.059,1.692-2.849,3.958-2.849h1.062c.088-1.094-.231-1.812-1.277-1.812-.718,0-1.246.359-1.246,1.045h-2.307c.12-1.844,1.7-2.73,3.672-2.754m-1.556,6.2a1.02,1.02,0,0,0,1.134.99,1.779,1.779,0,0,0,1.58-.838v-1.485H904.4c-1.214.016-1.852.407-1.852,1.333" transform="translate(-164.434 -37.525)"/>
        <path id="Trazado_727715" data-name="Trazado 727715" d="M919.289,213.624c-2.267,0-3.368-2.028-3.368-4.542,0-2.435,1.117-4.4,3.384-4.414a2.643,2.643,0,0,1,2.083.942V201.2H923.7v12.26H921.62l-.111-.918a2.719,2.719,0,0,1-2.219,1.078m-1.062-4.374c0,1.4.407,2.506,1.652,2.506a1.552,1.552,0,0,0,1.509-.9v-3.408a1.523,1.523,0,0,0-1.492-.9c-1.109,0-1.668.9-1.668,2.706" transform="translate(-167.299 -36.751)"/>
        <path id="Trazado_727716" data-name="Trazado 727716" d="M934.9,212.842a4.033,4.033,0,0,1-3.368,1.556,4.1,4.1,0,0,1-4.286-4.494c.1-2.633,1.436-4.462,4.03-4.462,2.467,0,3.847,1.708,3.807,4.286v.942h-5.5a2.03,2.03,0,0,0,2.1,1.868,2.49,2.49,0,0,0,2.083-.966Zm-2.083-3.743c.04-1.109-.495-1.8-1.549-1.788-1.037.008-1.524.775-1.66,1.788h3.209" transform="translate(-169.367 -37.525)"/>
        <rect id="Rectángulo_350634" data-name="Rectángulo 350634" width="2.315" height="12.26" transform="translate(771.218 164.454)"/>
        <path id="Trazado_727717" data-name="Trazado 727717" d="M952.378,214.4c-2.57,0-4.159-1.868-4.095-4.558.064-2.642,1.452-4.4,4.079-4.4,2.586,0,4.1,1.844,4.1,4.566,0,2.546-1.581,4.39-4.087,4.39m-.016-7.088c-1.349,0-1.772,1.125-1.772,2.7,0,1.444.487,2.53,1.788,2.53,1.357,0,1.779-1.093,1.779-2.7,0-1.421-.511-2.531-1.8-2.531" transform="translate(-173.21 -37.525)"/>
        <path id="Trazado_727718" data-name="Trazado 727718" d="M963.27,212.762c.75,0,1.341-.263,1.341-.91a.742.742,0,0,0-.423-.663,4.831,4.831,0,0,0-1.341-.439q-3.076-.646-3.081-2.618c0-1.66,1.62-2.69,3.448-2.69,1.963,0,3.6.99,3.615,2.786h-2.307c-.015-.727-.494-1.141-1.317-1.141-.687,0-1.206.327-1.221.933a.716.716,0,0,0,.367.615,20.645,20.645,0,0,0,2.674.8,2.428,2.428,0,0,1,1.828,2.323c0,2.378-3.385,3.224-5.555,2.258a2.849,2.849,0,0,1-1.8-2.522h2.187c.039.846.686,1.269,1.588,1.269" transform="translate(-175.258 -37.525)"/>
        <path id="Trazado_727719" data-name="Trazado 727719" d="M793.427,236.2c.749,0,1.34-.263,1.34-.91a.742.742,0,0,0-.423-.663,4.831,4.831,0,0,0-1.34-.439q-3.077-.646-3.081-2.618c0-1.66,1.62-2.69,3.448-2.69,1.963,0,3.6.99,3.615,2.785h-2.307c-.016-.727-.494-1.141-1.316-1.141-.687,0-1.206.327-1.222.933a.717.717,0,0,0,.367.615,20.644,20.644,0,0,0,2.674.8,2.429,2.429,0,0,1,1.828,2.323c0,2.378-3.385,3.224-5.556,2.258a2.85,2.85,0,0,1-1.8-2.522h2.187c.039.846.687,1.269,1.589,1.269" transform="translate(-144.235 -41.806)"/>
        <path id="Trazado_727720" data-name="Trazado 727720" d="M804.126,237.062c-2.571,0-4.159-1.868-4.095-4.558.064-2.642,1.452-4.4,4.078-4.4,2.586,0,4.1,1.844,4.1,4.566,0,2.546-1.581,4.39-4.087,4.39m-.016-7.088c-1.349,0-1.772,1.125-1.772,2.7,0,1.445.487,2.53,1.788,2.53,1.357,0,1.78-1.094,1.78-2.7,0-1.421-.511-2.53-1.8-2.53m.455-5.332h2.514l-2.211,2.474h-1.876" transform="translate(-146.131 -41.032)"/>
        <rect id="Rectángulo_350635" data-name="Rectángulo 350635" width="2.315" height="12.26" transform="translate(663.623 183.61)"/>
        <path id="Trazado_727721" data-name="Trazado 727721" d="M819.513,236.947H817.2v-8.636h2.315Zm-1.157-9.674a1.206,1.206,0,0,1-1.294-1.2,1.3,1.3,0,0,1,2.586,0,1.206,1.206,0,0,1-1.292,1.2" transform="translate(-149.242 -41.077)"/>
        <path id="Trazado_727722" data-name="Trazado 727722" d="M825.315,237.062c-2.267,0-3.368-2.028-3.368-4.542,0-2.435,1.117-4.4,3.384-4.414a2.643,2.643,0,0,1,2.083.942v-4.406h2.315V236.9h-2.083l-.111-.918a2.719,2.719,0,0,1-2.219,1.078m-1.062-4.374c0,1.405.407,2.506,1.652,2.506a1.552,1.552,0,0,0,1.509-.9v-3.408a1.524,1.524,0,0,0-1.492-.9c-1.109,0-1.668.9-1.668,2.706" transform="translate(-150.134 -41.032)"/>
        <path id="Trazado_727723" data-name="Trazado 727723" d="M837.311,237.837c-2.571,0-4.159-1.868-4.095-4.558.064-2.642,1.452-4.4,4.079-4.4,2.586,0,4.1,1.844,4.1,4.566,0,2.546-1.581,4.39-4.087,4.39m-.016-7.088c-1.349,0-1.772,1.125-1.772,2.7,0,1.444.487,2.53,1.788,2.53,1.357,0,1.779-1.093,1.779-2.7,0-1.421-.511-2.53-1.8-2.53" transform="translate(-152.192 -41.807)"/>
        <path id="Trazado_727724" data-name="Trazado 727724" d="M848.2,236.2c.75,0,1.341-.263,1.341-.91a.742.742,0,0,0-.423-.663,4.829,4.829,0,0,0-1.341-.439q-3.076-.646-3.081-2.618c0-1.66,1.62-2.69,3.448-2.69,1.963,0,3.6.99,3.615,2.785h-2.307c-.016-.727-.495-1.141-1.317-1.141-.687,0-1.206.327-1.221.933a.717.717,0,0,0,.367.615,20.649,20.649,0,0,0,2.674.8,2.429,2.429,0,0,1,1.828,2.323c0,2.378-3.385,3.224-5.556,2.258a2.849,2.849,0,0,1-1.8-2.522h2.187c.039.846.686,1.269,1.588,1.269" transform="translate(-154.24 -41.806)"/>
        <path id="Trazado_727725" data-name="Trazado 727725" d="M863.285,234.895l1.6-5.819h2.41l-2.913,8.636h-2.2l-2.913-8.636h2.41" transform="translate(-156.951 -41.842)"/>
        <path id="Trazado_727726" data-name="Trazado 727726" d="M873.843,237.837c-2.57,0-4.159-1.868-4.095-4.558.064-2.642,1.452-4.4,4.079-4.4,2.586,0,4.1,1.844,4.1,4.566,0,2.546-1.581,4.39-4.087,4.39m-.016-7.088c-1.349,0-1.772,1.125-1.772,2.7,0,1.444.487,2.53,1.788,2.53,1.357,0,1.779-1.093,1.779-2.7,0-1.421-.511-2.53-1.8-2.53" transform="translate(-158.865 -41.807)"/>
        <rect id="Rectángulo_350636" data-name="Rectángulo 350636" width="2.315" height="12.26" transform="translate(720.606 183.61)"/>
        <path id="Trazado_727727" data-name="Trazado 727727" d="M890.243,228.106c2.028-.032,3.472,1.07,3.472,3.058v3.743a4.175,4.175,0,0,0,.343,1.859v.136h-2.33a2.6,2.6,0,0,1-.231-.774,2.794,2.794,0,0,1-2.179.933,2.722,2.722,0,0,1-2.937-2.586c.04-2.059,1.692-2.849,3.959-2.849H891.4c.088-1.094-.231-1.812-1.277-1.812-.719,0-1.246.36-1.246,1.045h-2.307c.12-1.843,1.7-2.729,3.672-2.754m-1.556,6.2a1.02,1.02,0,0,0,1.134.99,1.777,1.777,0,0,0,1.58-.838v-1.485h-.861c-1.214.016-1.852.407-1.852,1.333m2.011-9.666h2.514L891,227.116h-1.876" transform="translate(-161.903 -41.032)"/>
        <path id="Trazado_727728" data-name="Trazado 727728" d="M900.1,234.6c.016.663.2.886.886.894a3.467,3.467,0,0,0,.678-.056v1.748a4.854,4.854,0,0,1-1.4.208,2.187,2.187,0,0,1-2.474-2.45v-4.653h-1.261V228.6H897.8v-2.123H900.1V228.6h1.477v1.693H900.1Z" transform="translate(-163.758 -41.368)"/>
        <path id="Trazado_727729" data-name="Trazado 727729" d="M906.711,236.947H904.4v-8.636h2.315Zm-1.157-9.674a1.206,1.206,0,0,1-1.293-1.2,1.3,1.3,0,0,1,2.586,0,1.206,1.206,0,0,1-1.293,1.2" transform="translate(-165.169 -41.077)"/>
        <rect id="Rectángulo_350637" data-name="Rectángulo 350637" width="2.315" height="12.26" transform="translate(743.562 183.61)"/>
        <path id="Trazado_727730" data-name="Trazado 727730" d="M922.159,236.279a4.032,4.032,0,0,1-3.368,1.556,4.1,4.1,0,0,1-4.286-4.494c.1-2.633,1.436-4.462,4.03-4.462,2.467,0,3.847,1.708,3.807,4.286v.942h-5.5a2.03,2.03,0,0,0,2.1,1.868,2.49,2.49,0,0,0,2.083-.966Zm-2.083-3.743c.04-1.109-.495-1.8-1.549-1.788-1.037.008-1.524.775-1.66,1.788h3.209" transform="translate(-167.039 -41.806)"/>
        <path id="Trazado_727731" data-name="Trazado 727731" d="M928.934,236.2c.75,0,1.341-.263,1.341-.91a.742.742,0,0,0-.423-.663,4.829,4.829,0,0,0-1.341-.439q-3.076-.646-3.081-2.618c0-1.66,1.62-2.69,3.448-2.69,1.963,0,3.6.99,3.615,2.785h-2.307c-.016-.727-.495-1.141-1.317-1.141-.687,0-1.206.327-1.221.933a.717.717,0,0,0,.367.615,20.643,20.643,0,0,0,2.674.8,2.429,2.429,0,0,1,1.828,2.323c0,2.378-3.385,3.224-5.555,2.258a2.849,2.849,0,0,1-1.8-2.522h2.187c.039.846.686,1.269,1.588,1.269" transform="translate(-168.986 -41.806)"/>
        <line id="Línea_3158" data-name="Línea 3158" y2="65.265" transform="translate(410.004 68.493)" fill="none" stroke="#5e5e5e" stroke-width="2"/>
        <rect id="Rectángulo_350638" data-name="Rectángulo 350638" width="1.635" height="0.834" transform="translate(409.187 67.676)" fill="#5e5e5e"/>
        <rect id="Rectángulo_350639" data-name="Rectángulo 350639" width="1.635" height="0.834" transform="translate(409.187 67.676)" fill="none" stroke="#5e5e5e" stroke-width="0.05"/>
        <path id="Trazado_727732" data-name="Trazado 727732" d="M500.783,176.305,496.99,164.65h7.569Z" transform="translate(-90.778 -30.074)" fill="#fff"/>
        <path id="Trazado_727733" data-name="Trazado 727733" d="M500.783,176.305,496.99,164.65h7.569Z" transform="translate(-90.778 -30.074)" fill="none" stroke="#5e5e5e" stroke-width="2"/>
        <path id="Trazado_727734" data-name="Trazado 727734" d="M435.874,83.8v34.876a4.9,4.9,0,0,1-4.9,4.9H146.534a4.9,4.9,0,0,0-4.9,4.9v20.581" transform="translate(-25.87 -15.307)" fill="none" stroke="#5e5e5e" stroke-width="2"/>
        <rect id="Rectángulo_350640" data-name="Rectángulo 350640" width="1.635" height="0.834" transform="translate(409.187 67.676)" fill="#5e5e5e"/>
        <rect id="Rectángulo_350641" data-name="Rectángulo 350641" width="1.635" height="0.834" transform="translate(409.187 67.676)" fill="none" stroke="#5e5e5e" stroke-width="0.05"/>
        <path id="Trazado_727735" data-name="Trazado 727735" d="M140.782,176.305,136.99,164.65h7.569Z" transform="translate(-25.022 -30.074)" fill="#fff"/>
        <path id="Trazado_727736" data-name="Trazado 727736" d="M140.782,176.305,136.99,164.65h7.569Z" transform="translate(-25.022 -30.074)" fill="none" stroke="#5e5e5e" stroke-width="2"/>
        <path id="Trazado_727737" data-name="Trazado 727737" d="M501.63,83.8v34.876a4.9,4.9,0,0,0,4.9,4.9H790.97a4.9,4.9,0,0,1,4.9,4.9v20.581" transform="translate(-91.626 -15.307)" fill="none" stroke="#5e5e5e" stroke-width="2"/>
        <rect id="Rectángulo_350642" data-name="Rectángulo 350642" width="1.635" height="0.834" transform="translate(409.187 67.676)" fill="#5e5e5e"/>
        <rect id="Rectángulo_350643" data-name="Rectángulo 350643" width="1.635" height="0.834" transform="translate(409.187 67.676)" fill="none" stroke="#5e5e5e" stroke-width="0.05"/>
        <path id="Trazado_727738" data-name="Trazado 727738" d="M860.782,176.305,856.99,164.65h7.569Z" transform="translate(-156.535 -30.074)" fill="#fff"/>
        <path id="Trazado_727739" data-name="Trazado 727739" d="M860.782,176.305,856.99,164.65h7.569Z" transform="translate(-156.535 -30.074)" fill="none" stroke="#5e5e5e" stroke-width="2"/>
      </g>
    </g>
  </g>
</svg>
