<svg xmlns="http://www.w3.org/2000/svg" xmlns:xlink="http://www.w3.org/1999/xlink" width="39.908" height="54.792" viewBox="0 0 39.908 54.792">
  <defs>
    <clipPath id="clip-path">
      <rect id="Rectángulo_348181" data-name="Rectángulo 348181" width="39.908" height="54.792" transform="translate(0 0)" fill="none"/>
    </clipPath>
  </defs>
  <g id="Grupo_1009273" data-name="Grupo 1009273" transform="translate(0 0)">
    <g id="Grupo_1009269" data-name="Grupo 1009269" clip-path="url(#clip-path)">
      <path id="Trazado_718234" data-name="Trazado 718234" d="M26.959,4.483h11.42a.778.778,0,0,1,.778.781V53.259a.778.778,0,0,1-.778.781H1.53a.78.78,0,0,1-.778-.781V5.264a.78.78,0,0,1,.778-.781H12.95" fill="#ffa031"/>
      <path id="Trazado_718235" data-name="Trazado 718235" d="M26.959,4.483h11.42a.778.778,0,0,1,.778.781V53.259a.778.778,0,0,1-.778.781H1.53a.78.78,0,0,1-.778-.781V5.264a.78.78,0,0,1,.778-.781H12.95" fill="none" stroke="#353535" stroke-linecap="round" stroke-linejoin="round" stroke-width="1.504"/>
      <path id="Trazado_718236" data-name="Trazado 718236" d="M28.081,8h7.2V50.526H4.625V8h7.2" fill="#fff"/>
      <path id="Trazado_718237" data-name="Trazado 718237" d="M28.081,8h7.2V50.526H4.625V8h7.2" fill="none" stroke="#353535" stroke-linecap="round" stroke-linejoin="round" stroke-width="1.504"/>
      <line id="Línea_2917" data-name="Línea 2917" x2="15.226" transform="translate(15.138 27.765)" fill="#fff"/>
      <line id="Línea_2918" data-name="Línea 2918" x2="15.226" transform="translate(15.138 27.765)" fill="none" stroke="#353535" stroke-linecap="round" stroke-linejoin="round" stroke-width="1.504"/>
      <line id="Línea_2919" data-name="Línea 2919" x2="15.226" transform="translate(15.138 34.947)" fill="#fff"/>
      <line id="Línea_2920" data-name="Línea 2920" x2="15.226" transform="translate(15.138 34.947)" fill="none" stroke="#353535" stroke-linecap="round" stroke-linejoin="round" stroke-width="1.504"/>
      <rect id="Rectángulo_348175" data-name="Rectángulo 348175" width="3.937" height="3.955" transform="translate(9.378 32.97)" fill="#b6cfe5"/>
      <rect id="Rectángulo_348176" data-name="Rectángulo 348176" width="3.937" height="3.955" transform="translate(9.378 32.97)" fill="none" stroke="#353535" stroke-linecap="round" stroke-linejoin="round" stroke-width="1.504"/>
      <rect id="Rectángulo_348177" data-name="Rectángulo 348177" width="3.937" height="3.955" transform="translate(9.378 25.788)" fill="#b6cfe5"/>
      <rect id="Rectángulo_348178" data-name="Rectángulo 348178" width="3.937" height="3.955" transform="translate(9.378 25.788)" fill="none" stroke="#353535" stroke-linecap="round" stroke-linejoin="round" stroke-width="1.504"/>
      <line id="Línea_2921" data-name="Línea 2921" x2="15.226" transform="translate(15.138 42.129)" fill="#fff"/>
      <line id="Línea_2922" data-name="Línea 2922" x2="15.226" transform="translate(15.138 42.129)" fill="none" stroke="#353535" stroke-linecap="round" stroke-linejoin="round" stroke-width="1.504"/>
      <path id="Trazado_718238" data-name="Trazado 718238" d="M28.081,8,26.959,4.484l-.554-1.743H22.312A2.2,2.2,0,0,0,19.955.752,2.2,2.2,0,0,0,17.6,2.74h-4.09L12.95,4.484,11.827,8l-.616,1.934H28.7Z" fill="#fff"/>
      <path id="Trazado_718239" data-name="Trazado 718239" d="M28.081,8,26.959,4.484l-.554-1.743H22.312A2.2,2.2,0,0,0,19.955.752,2.2,2.2,0,0,0,17.6,2.74h-4.09L12.95,4.484,11.827,8l-.616,1.934H28.7Z" fill="none" stroke="#353535" stroke-linecap="round" stroke-linejoin="round" stroke-width="1.504"/>
      <line id="Línea_2923" data-name="Línea 2923" x2="15.226" transform="translate(15.138 20.583)" fill="#fff"/>
      <line id="Línea_2924" data-name="Línea 2924" x2="15.226" transform="translate(15.138 20.583)" fill="none" stroke="#353535" stroke-linecap="round" stroke-linejoin="round" stroke-width="1.504"/>
      <rect id="Rectángulo_348179" data-name="Rectángulo 348179" width="3.937" height="3.955" transform="translate(9.378 40.197)" fill="#b6cfe5"/>
      <rect id="Rectángulo_348180" data-name="Rectángulo 348180" width="3.937" height="3.955" transform="translate(9.378 40.197)" fill="none" stroke="#353535" stroke-linecap="round" stroke-linejoin="round" stroke-width="1.504"/>
      <path id="Trazado_718240" data-name="Trazado 718240" d="M13.315,21.273v1.288H9.378V18.606H10.8" fill="#fff"/>
      <path id="Trazado_718241" data-name="Trazado 718241" d="M13.315,21.273v1.288H9.378V18.606H10.8" fill="none" stroke="#353535" stroke-linecap="round" stroke-linejoin="round" stroke-width="1.504"/>
      <path id="Trazado_718242" data-name="Trazado 718242" d="M10.768,20.375l.777.617,2.327-3.344" fill="#fff"/>
      <path id="Trazado_718243" data-name="Trazado 718243" d="M10.768,20.375l.777.617,2.327-3.344" fill="none" stroke="#353535" stroke-linecap="round" stroke-linejoin="round" stroke-width="1.504"/>
    </g>
  </g>
</svg>
