<svg xmlns="http://www.w3.org/2000/svg" xmlns:xlink="http://www.w3.org/1999/xlink" width="61.037" height="56.501" viewBox="0 0 61.037 56.501">
  <defs>
    <clipPath id="clip-path">
      <rect id="Rectángulo_348166" data-name="Rectángulo 348166" width="61.037" height="56.501" transform="translate(0 0)" fill="none"/>
    </clipPath>
  </defs>
  <g id="Grupo_1009271" data-name="Grupo 1009271" transform="translate(0 0)">
    <g id="Grupo_1009261" data-name="Grupo 1009261" clip-path="url(#clip-path)">
      <path id="Trazado_718215" data-name="Trazado 718215" d="M22.8,32.109l3.073-3.4a.532.532,0,0,0-.038-.751l-1.8-1.626a.516.516,0,0,1-.119-.6,10.408,10.408,0,0,0,.6-1.68.518.518,0,0,1,.472-.391l2.423-.124a.532.532,0,0,0,.5-.558l-.234-4.58a.532.532,0,0,0-.558-.5l-2.424.124a.517.517,0,0,1-.509-.34,10.4,10.4,0,0,0-.765-1.611.516.516,0,0,1,.057-.609l1.626-1.8a.531.531,0,0,0-.038-.751l-3.4-3.073a.531.531,0,0,0-.751.038l-1.626,1.8a.518.518,0,0,1-.6.119,10.313,10.313,0,0,0-1.68-.6.519.519,0,0,1-.391-.472L16.494,8.3a.532.532,0,0,0-.559-.5l-4.58.234a.532.532,0,0,0-.5.558l.124,2.424a.515.515,0,0,1-.34.508,10.494,10.494,0,0,0-1.611.766.517.517,0,0,1-.609-.057L6.614,10.6a.532.532,0,0,0-.751.038l-3.073,3.4a.531.531,0,0,0,.038.751l1.8,1.626a.518.518,0,0,1,.119.6,10.5,10.5,0,0,0-.6,1.68.515.515,0,0,1-.471.39l-2.424.124a.532.532,0,0,0-.5.559l.234,4.58a.531.531,0,0,0,.559.5l2.423-.123a.516.516,0,0,1,.509.34,10.4,10.4,0,0,0,.765,1.611.517.517,0,0,1-.057.609l-1.626,1.8a.532.532,0,0,0,.039.751L7,32.917a.532.532,0,0,0,.751-.038l1.625-1.8a.516.516,0,0,1,.6-.119,10.5,10.5,0,0,0,1.68.6.516.516,0,0,1,.391.471l.124,2.424a.531.531,0,0,0,.558.5l3.581-.183a1.533,1.533,0,0,0,1.452-1.609l-.073-1.424a.516.516,0,0,1,.34-.509,10.4,10.4,0,0,0,1.611-.765.516.516,0,0,1,.609.057l1.8,1.626a.532.532,0,0,0,.751-.039M11.517,25.824a5.267,5.267,0,1,1,6.072-.31,5.271,5.271,0,0,1-6.072.31" fill="#ffa031"/>
      <path id="Trazado_718216" data-name="Trazado 718216" d="M22.8,32.109l3.073-3.4a.532.532,0,0,0-.038-.751l-1.8-1.626a.516.516,0,0,1-.119-.6,10.408,10.408,0,0,0,.6-1.68.518.518,0,0,1,.472-.391l2.423-.124a.532.532,0,0,0,.5-.558l-.234-4.58a.532.532,0,0,0-.558-.5l-2.424.124a.517.517,0,0,1-.509-.34,10.4,10.4,0,0,0-.765-1.611.516.516,0,0,1,.057-.609l1.626-1.8a.531.531,0,0,0-.038-.751l-3.4-3.073a.531.531,0,0,0-.751.038l-1.626,1.8a.518.518,0,0,1-.6.119,10.313,10.313,0,0,0-1.68-.6.519.519,0,0,1-.391-.472L16.494,8.3a.532.532,0,0,0-.559-.5l-4.58.234a.532.532,0,0,0-.5.558l.124,2.424a.515.515,0,0,1-.34.508,10.494,10.494,0,0,0-1.611.766.517.517,0,0,1-.609-.057L6.614,10.6a.532.532,0,0,0-.751.038l-3.073,3.4a.531.531,0,0,0,.038.751l1.8,1.626a.518.518,0,0,1,.119.6,10.5,10.5,0,0,0-.6,1.68.515.515,0,0,1-.471.39l-2.424.124a.532.532,0,0,0-.5.559l.234,4.58a.531.531,0,0,0,.559.5l2.423-.123a.516.516,0,0,1,.509.34,10.4,10.4,0,0,0,.765,1.611.517.517,0,0,1-.057.609l-1.626,1.8a.532.532,0,0,0,.039.751L7,32.917a.532.532,0,0,0,.751-.038l1.625-1.8a.516.516,0,0,1,.6-.119,10.5,10.5,0,0,0,1.68.6.516.516,0,0,1,.391.471l.124,2.424a.531.531,0,0,0,.558.5l3.581-.183a1.533,1.533,0,0,0,1.452-1.609l-.073-1.424a.516.516,0,0,1,.34-.509,10.4,10.4,0,0,0,1.611-.765.516.516,0,0,1,.609.057l1.8,1.626A.532.532,0,0,0,22.8,32.109ZM11.517,25.824a5.267,5.267,0,1,1,6.072-.31A5.271,5.271,0,0,1,11.517,25.824Z" fill="none" stroke="#353535" stroke-linecap="round" stroke-linejoin="round" stroke-width="1.504"/>
      <path id="Trazado_718217" data-name="Trazado 718217" d="M38.632,52.847l2.47-3.108a.4.4,0,0,0-.064-.563L39.4,47.871a.437.437,0,0,1-.132-.5,8.8,8.8,0,0,0,.414-1.448.438.438,0,0,1,.378-.355l2.083-.238a.4.4,0,0,0,.354-.444l-.451-3.944a.4.4,0,0,0-.445-.353l-2.083.238a.436.436,0,0,1-.448-.26,8.888,8.888,0,0,0-.73-1.317.435.435,0,0,1,.016-.517l1.305-1.642a.4.4,0,0,0-.065-.563l-3.108-2.471a.4.4,0,0,0-.563.065l-1.305,1.642a.437.437,0,0,1-.5.132,8.767,8.767,0,0,0-1.448-.414.437.437,0,0,1-.354-.377l-.238-2.084a.4.4,0,0,0-.444-.353l-3.944.451a.4.4,0,0,0-.353.443l.238,2.085a.437.437,0,0,1-.26.447,8.907,8.907,0,0,0-1.318.73.435.435,0,0,1-.516-.016L23.837,35.5a.4.4,0,0,0-.564.064L20.8,38.675a.4.4,0,0,0,.065.564l1.641,1.305a.434.434,0,0,1,.132.5,8.965,8.965,0,0,0-.414,1.448.435.435,0,0,1-.376.354l-2.084.238a.4.4,0,0,0-.354.444l.452,3.944a.4.4,0,0,0,.444.353l2.083-.238a.435.435,0,0,1,.447.26,8.838,8.838,0,0,0,.73,1.317.435.435,0,0,1-.015.517l-1.306,1.642a.4.4,0,0,0,.065.563l3.108,2.471a.4.4,0,0,0,.563-.065l1.305-1.642a.438.438,0,0,1,.5-.132,8.8,8.8,0,0,0,1.448.415.435.435,0,0,1,.354.376l.239,2.085a.4.4,0,0,0,.443.353l3.945-.451a.4.4,0,0,0,.353-.444l-.238-2.084a.435.435,0,0,1,.26-.447,8.8,8.8,0,0,0,1.317-.731.438.438,0,0,1,.517.016l1.642,1.305a.4.4,0,0,0,.563-.064m-9.694-6.1a3.239,3.239,0,1,1,4.55-.52,3.238,3.238,0,0,1-4.55.52" fill="#fff"/>
      <path id="Trazado_718218" data-name="Trazado 718218" d="M38.632,52.847l2.47-3.108a.4.4,0,0,0-.064-.563L39.4,47.871a.437.437,0,0,1-.132-.5,8.8,8.8,0,0,0,.414-1.448.438.438,0,0,1,.378-.355l2.083-.238a.4.4,0,0,0,.354-.444l-.451-3.944a.4.4,0,0,0-.445-.353l-2.083.238a.436.436,0,0,1-.448-.26,8.888,8.888,0,0,0-.73-1.317.435.435,0,0,1,.016-.517l1.305-1.642a.4.4,0,0,0-.065-.563l-3.108-2.471a.4.4,0,0,0-.563.065l-1.305,1.642a.437.437,0,0,1-.5.132,8.767,8.767,0,0,0-1.448-.414.437.437,0,0,1-.354-.377l-.238-2.084a.4.4,0,0,0-.444-.353l-3.944.451a.4.4,0,0,0-.353.443l.238,2.085a.437.437,0,0,1-.26.447,8.907,8.907,0,0,0-1.318.73.435.435,0,0,1-.516-.016L23.837,35.5a.4.4,0,0,0-.564.064L20.8,38.675a.4.4,0,0,0,.065.564l1.641,1.305a.434.434,0,0,1,.132.5,8.965,8.965,0,0,0-.414,1.448.435.435,0,0,1-.376.354l-2.084.238a.4.4,0,0,0-.354.444l.452,3.944a.4.4,0,0,0,.444.353l2.083-.238a.435.435,0,0,1,.447.26,8.838,8.838,0,0,0,.73,1.317.435.435,0,0,1-.015.517l-1.306,1.642a.4.4,0,0,0,.065.563l3.108,2.471a.4.4,0,0,0,.563-.065l1.305-1.642a.438.438,0,0,1,.5-.132,8.8,8.8,0,0,0,1.448.415.435.435,0,0,1,.354.376l.239,2.085a.4.4,0,0,0,.443.353l3.945-.451a.4.4,0,0,0,.353-.444l-.238-2.084a.435.435,0,0,1,.26-.447,8.8,8.8,0,0,0,1.317-.731.438.438,0,0,1,.517.016l1.642,1.305A.4.4,0,0,0,38.632,52.847Zm-9.694-6.1a3.239,3.239,0,1,1,4.55-.52A3.238,3.238,0,0,1,28.938,46.743Z" fill="none" stroke="#353535" stroke-linecap="round" stroke-linejoin="round" stroke-width="1.504"/>
      <path id="Trazado_718219" data-name="Trazado 718219" d="M60.285,19.7A18.95,18.95,0,1,1,41.336.752,18.949,18.949,0,0,1,60.285,19.7" fill="#fff"/>
      <path id="Trazado_718220" data-name="Trazado 718220" d="M60.285,19.7A18.95,18.95,0,1,1,41.336.752,18.949,18.949,0,0,1,60.285,19.7Z" fill="none" stroke="#353535" stroke-linecap="round" stroke-linejoin="round" stroke-width="1.504"/>
      <path id="Trazado_718221" data-name="Trazado 718221" d="M49.375,23.407a7.329,7.329,0,0,1-14.657,0c0-5.109,7.328-15.44,7.328-15.44s7.329,10.847,7.329,15.44" fill="#b6cfe5"/>
      <path id="Trazado_718222" data-name="Trazado 718222" d="M49.375,23.407a7.329,7.329,0,0,1-14.657,0c0-5.109,7.328-15.44,7.328-15.44S49.375,18.814,49.375,23.407Z" fill="none" stroke="#353535" stroke-linecap="round" stroke-linejoin="round" stroke-width="1.504"/>
    </g>
  </g>
</svg>
