<svg xmlns="http://www.w3.org/2000/svg" xmlns:xlink="http://www.w3.org/1999/xlink" width="1600" height="220" viewBox="0 0 1600 220">
  <defs>
    <clipPath id="clip-path">
      <rect id="Rectángulo_344499" data-name="Rectángulo 344499" width="1600" height="220" transform="translate(0 32)" fill="#fff"/>
    </clipPath>
    <clipPath id="clip-path-2">
      <rect id="Rectángulo_34573" data-name="Rectángulo 34573" width="1637" height="629" rx="20" transform="translate(-0.158 0)" fill="#fceae8"/>
    </clipPath>
    <clipPath id="clip-path-3">
      <rect id="Rectángulo_34574" data-name="Rectángulo 34574" width="1697.646" height="743.436" fill="#008b8a"/>
    </clipPath>
  </defs>
  <g id="Grupo_930212" data-name="Grupo 930212" transform="translate(0 -70)">
    <g id="Enmascarar_grupo_87" data-name="Enmascarar grupo 87" transform="translate(0 38)" clip-path="url(#clip-path)">
      <rect id="Rectángulo_34572" data-name="Rectángulo 34572" width="1637" height="629" rx="20" transform="translate(-37 -118)" fill="#fceae8"/>
      <path id="Trazado_114144" data-name="Trazado 114144" d="M24.8,0H1612.04a24.8,24.8,0,0,1,24.8,24.8V603.9a24.8,24.8,0,0,1-24.8,24.8H24.8A24.8,24.8,0,0,1,0,603.9V24.8A24.8,24.8,0,0,1,24.8,0Z" transform="translate(-36.841 -117.848)" fill="#efefef"/>
      <g id="Enmascarar_grupo_52" data-name="Enmascarar grupo 52" transform="translate(-36.842 -118)" clip-path="url(#clip-path-2)">
        <g id="Grupo_82193" data-name="Grupo 82193" transform="translate(-17.444 -52.351)">
          <g id="Grupo_82192" data-name="Grupo 82192" clip-path="url(#clip-path-3)">
            <path id="Trazado_114023" data-name="Trazado 114023" d="M298.551,136.381a3.221,3.221,0,1,1-3.229,3.223,3.224,3.224,0,0,1,3.229-3.223m-22.92,3.223a3.223,3.223,0,1,0,3.227-3.223,3.223,3.223,0,0,0-3.227,3.223m-19.684,0a3.223,3.223,0,1,0,3.223-3.223,3.219,3.219,0,0,0-3.223,3.223M6.45,120.123a3.2,3.2,0,0,0-1.072-2.384c-.477,1.823-.944,3.651-1.361,5.5a3.222,3.222,0,0,0,2.433-3.114M236.257,139.6a3.224,3.224,0,1,0,3.225-3.223,3.219,3.219,0,0,0-3.225,3.223M3.223,142.824a3.221,3.221,0,1,0-1.686-5.96c-.231,1.659-.441,3.321-.619,5a3.208,3.208,0,0,0,2.305.965M98.442,139.6a3.224,3.224,0,1,0,3.223-3.223,3.218,3.218,0,0,0-3.223,3.223m59.065,0a3.225,3.225,0,1,0,3.223-3.223,3.218,3.218,0,0,0-3.223,3.223m-19.691,0a3.225,3.225,0,1,0,3.225-3.223,3.221,3.221,0,0,0-3.225,3.223m-19.686,0a3.222,3.222,0,1,0,3.221-3.223,3.22,3.22,0,0,0-3.221,3.223m59.069,0a3.221,3.221,0,1,0,3.219-3.223A3.215,3.215,0,0,0,177.2,139.6m98.433-19.481a3.223,3.223,0,1,0,3.227-3.229,3.233,3.233,0,0,0-3.227,3.229M196.882,139.6a3.225,3.225,0,1,0,3.223-3.223,3.218,3.218,0,0,0-3.223,3.223m19.688,0a3.224,3.224,0,1,0,3.231-3.223,3.217,3.217,0,0,0-3.231,3.223m19.688-19.481a3.224,3.224,0,1,0,3.225-3.229,3.229,3.229,0,0,0-3.225,3.229m-59.059,0a3.221,3.221,0,1,0,3.219-3.229,3.225,3.225,0,0,0-3.219,3.229m19.684,0a3.225,3.225,0,1,0,3.223-3.229,3.228,3.228,0,0,0-3.223,3.229m-157.5,0a3.224,3.224,0,1,0,3.219-3.229,3.226,3.226,0,0,0-3.219,3.229m216.57,0a3.223,3.223,0,1,0,3.223-3.229,3.229,3.229,0,0,0-3.223,3.229m39.375,0a3.224,3.224,0,1,0,3.229-3.229,3.234,3.234,0,0,0-3.229,3.229m-78.752,0a3.224,3.224,0,1,0,3.231-3.229,3.227,3.227,0,0,0-3.231,3.229m-137.821,0a3.227,3.227,0,1,0,3.229-3.229,3.233,3.233,0,0,0-3.229,3.229m-19.682,0a3.224,3.224,0,1,0,3.223-3.229,3.229,3.229,0,0,0-3.223,3.229m39.375,0a3.224,3.224,0,1,0,3.223-3.229,3.228,3.228,0,0,0-3.223,3.229m59.065,0a3.225,3.225,0,1,0,3.223-3.229,3.228,3.228,0,0,0-3.223,3.229m-39.377,0a3.222,3.222,0,1,0,3.221-3.229,3.23,3.23,0,0,0-3.221,3.229m19.686,0a3.225,3.225,0,1,0,3.225-3.229,3.231,3.231,0,0,0-3.225,3.229m-118.128,0a3.225,3.225,0,1,0,3.221-3.229,3.23,3.23,0,0,0-3.221,3.229M78.749,139.6a3.227,3.227,0,1,0,3.229-3.223,3.223,3.223,0,0,0-3.229,3.223M59.067,159.087a3.224,3.224,0,1,0,3.223-3.225,3.223,3.223,0,0,0-3.223,3.225m-39.379,0a3.225,3.225,0,1,0,3.221-3.225,3.224,3.224,0,0,0-3.221,3.225m59.061,0a3.227,3.227,0,1,0,3.229-3.225,3.227,3.227,0,0,0-3.229,3.225M3.223,181.8a3.226,3.226,0,1,0,0-6.452,3.192,3.192,0,0,0-2.305.972c.178,1.678.389,3.332.619,4.991a3.228,3.228,0,0,0,1.686.488m95.219-22.71a3.224,3.224,0,1,0,3.223-3.225,3.222,3.222,0,0,0-3.223,3.225M216.57,178.568a3.224,3.224,0,1,0,3.231-3.223,3.228,3.228,0,0,0-3.231,3.223m-98.44-19.481a3.222,3.222,0,1,0,3.221-3.225,3.224,3.224,0,0,0-3.221,3.225m78.752,19.481a3.225,3.225,0,1,0,3.223-3.223,3.229,3.229,0,0,0-3.223,3.223m78.749,0a3.223,3.223,0,1,0,3.227-3.223,3.233,3.233,0,0,0-3.227,3.223m-39.373,0a3.224,3.224,0,1,0,3.225-3.223,3.229,3.229,0,0,0-3.225,3.223m59.065,0a3.224,3.224,0,1,0,3.229-3.223,3.235,3.235,0,0,0-3.229,3.223m-39.375,0a3.223,3.223,0,1,0,3.223-3.223,3.23,3.23,0,0,0-3.223,3.223M39.377,159.087a3.224,3.224,0,1,0,3.219-3.225,3.22,3.22,0,0,0-3.219,3.225M0,159.087a3.225,3.225,0,1,0,3.223-3.225A3.222,3.222,0,0,0,0,159.087M19.688,139.6a3.225,3.225,0,1,0,3.221-3.223,3.22,3.22,0,0,0-3.221,3.223m275.635,19.483a3.224,3.224,0,1,0,3.229-3.225,3.228,3.228,0,0,0-3.229,3.225m-19.691,0a3.223,3.223,0,1,0,3.227-3.225,3.227,3.227,0,0,0-3.227,3.225M39.377,139.6a3.224,3.224,0,1,0,3.219-3.223,3.216,3.216,0,0,0-3.219,3.223m19.69,0a3.224,3.224,0,1,0,3.223-3.223,3.219,3.219,0,0,0-3.223,3.223M177.2,159.087a3.221,3.221,0,1,0,3.219-3.225,3.219,3.219,0,0,0-3.219,3.225m19.684,0a3.225,3.225,0,1,0,3.223-3.225,3.222,3.222,0,0,0-3.223,3.225m-59.067,0a3.225,3.225,0,1,0,3.225-3.225,3.225,3.225,0,0,0-3.225,3.225m118.131,0a3.223,3.223,0,1,0,3.223-3.225,3.223,3.223,0,0,0-3.223,3.225m-98.44,0a3.225,3.225,0,1,0,3.223-3.225,3.222,3.222,0,0,0-3.223,3.225m78.751,0a3.224,3.224,0,1,0,3.225-3.225,3.223,3.223,0,0,0-3.225,3.225m-19.688,0a3.224,3.224,0,1,0,3.231-3.225,3.221,3.221,0,0,0-3.231,3.225M98.442,22.71a3.224,3.224,0,1,0,3.223-3.225,3.217,3.217,0,0,0-3.223,3.225m157.5,58.445a3.223,3.223,0,1,0,3.223-3.223,3.215,3.215,0,0,0-3.223,3.223m-98.44-38.96a3.225,3.225,0,1,0,3.223-3.229,3.227,3.227,0,0,0-3.223,3.229m-39.377,0a3.222,3.222,0,1,0,3.221-3.229,3.229,3.229,0,0,0-3.221,3.229m19.686,0a3.225,3.225,0,1,0,3.225-3.229,3.23,3.23,0,0,0-3.225,3.229m59.067,0a3.225,3.225,0,1,0,3.223-3.229,3.227,3.227,0,0,0-3.223,3.229m39.375,0a3.224,3.224,0,1,0,3.225-3.229,3.228,3.228,0,0,0-3.225,3.229m26.136,0a3.223,3.223,0,1,0-3.223,3.229,3.224,3.224,0,0,0,3.223-3.229M200.105,6.457a3.228,3.228,0,0,0,3.11-2.418c-2.063-.559-4.134-1.093-6.236-1.575a3.408,3.408,0,0,0-.1.766,3.227,3.227,0,0,0,3.223,3.227m98.446,227.33a3.226,3.226,0,1,0,0,6.452,2.981,2.981,0,0,0,1.04-.191c.723-1.22,1.432-2.453,2.1-3.7a3.223,3.223,0,0,0-3.144-2.559M98.442,42.195a3.224,3.224,0,1,0,3.223-3.229,3.227,3.227,0,0,0-3.223,3.229m118.128,0a3.224,3.224,0,1,0,3.231-3.229,3.227,3.227,0,0,0-3.231,3.229m-157.5,0a3.224,3.224,0,1,0,3.223-3.229,3.229,3.229,0,0,0-3.223,3.229m19.682,0a3.227,3.227,0,1,0,3.229-3.229,3.232,3.232,0,0,0-3.229,3.229m98.449,0a3.221,3.221,0,1,0,3.219-3.229,3.224,3.224,0,0,0-3.219,3.229M236.257,22.71a3.224,3.224,0,1,0,3.225-3.225,3.217,3.217,0,0,0-3.225,3.225M137.815,3.231A3.225,3.225,0,1,0,141.04,0a3.23,3.23,0,0,0-3.225,3.231M216.57,22.71a3.224,3.224,0,1,0,3.231-3.225,3.216,3.216,0,0,0-3.231,3.225m-137.821,0a3.227,3.227,0,1,0,3.229-3.225,3.222,3.222,0,0,0-3.229,3.225M157.507,3.231A3.225,3.225,0,1,0,160.73,0a3.227,3.227,0,0,0-3.223,3.231m19.691,0A3.221,3.221,0,1,0,180.417,0,3.224,3.224,0,0,0,177.2,3.231M121.351,6.457a3.226,3.226,0,0,0,3.223-3.227,2.658,2.658,0,0,0-.105-.766c-2.1.482-4.162,1.016-6.221,1.575a3.214,3.214,0,0,0,3.1,2.418M137.815,22.71a3.225,3.225,0,1,0,3.225-3.225,3.22,3.22,0,0,0-3.225,3.225m-19.686,0a3.222,3.222,0,1,0,3.221-3.225,3.219,3.219,0,0,0-3.221,3.225M177.2,178.568a3.221,3.221,0,1,0,3.219-3.223,3.225,3.225,0,0,0-3.219,3.223m0-155.859a3.221,3.221,0,1,0,3.219-3.225A3.214,3.214,0,0,0,177.2,22.71m19.684,0a3.225,3.225,0,1,0,3.223-3.225,3.217,3.217,0,0,0-3.223,3.225m-39.375,0a3.225,3.225,0,1,0,3.223-3.225,3.217,3.217,0,0,0-3.223,3.225m137.815,77.936a3.224,3.224,0,1,0,3.229-3.225,3.228,3.228,0,0,0-3.229,3.225m-98.44,0a3.225,3.225,0,1,0,3.223-3.225,3.222,3.222,0,0,0-3.223,3.225m-19.684,0a3.221,3.221,0,1,0,3.219-3.225,3.219,3.219,0,0,0-3.219,3.225m39.372,0a3.224,3.224,0,1,0,3.231-3.225,3.221,3.221,0,0,0-3.231,3.225m19.688,0a3.224,3.224,0,1,0,3.225-3.225,3.222,3.222,0,0,0-3.225,3.225m19.69,0a3.223,3.223,0,1,0,3.223-3.225,3.223,3.223,0,0,0-3.223,3.225m-98.44,0a3.225,3.225,0,1,0,3.223-3.225,3.222,3.222,0,0,0-3.223,3.225m-118.13,0A3.224,3.224,0,1,0,42.6,97.421a3.22,3.22,0,0,0-3.219,3.225m19.69,0a3.224,3.224,0,1,0,3.223-3.225,3.223,3.223,0,0,0-3.223,3.225m19.682,0a3.227,3.227,0,1,0,3.229-3.225,3.227,3.227,0,0,0-3.229,3.225m-59.061,0a3.225,3.225,0,1,0,3.221-3.225,3.224,3.224,0,0,0-3.221,3.225m118.128,0a3.225,3.225,0,1,0,3.225-3.225,3.225,3.225,0,0,0-3.225,3.225m-39.373,0a3.224,3.224,0,1,0,3.223-3.225,3.222,3.222,0,0,0-3.223,3.225m19.688,0a3.222,3.222,0,1,0,3.221-3.225,3.224,3.224,0,0,0-3.221,3.225m157.5-19.491a3.223,3.223,0,1,0,3.227-3.223,3.218,3.218,0,0,0-3.227,3.223m-78.749,0a3.225,3.225,0,1,0,3.223-3.223,3.213,3.213,0,0,0-3.223,3.223m-19.684,0a3.221,3.221,0,1,0,3.219-3.223,3.21,3.21,0,0,0-3.219,3.223m98.433,19.491a3.223,3.223,0,1,0,3.227-3.225,3.226,3.226,0,0,0-3.227,3.225M137.815,81.155a3.225,3.225,0,1,0,3.225-3.223,3.216,3.216,0,0,0-3.225,3.223m98.442,0a3.224,3.224,0,1,0,3.225-3.223,3.214,3.214,0,0,0-3.225,3.223m-19.688,0a3.224,3.224,0,1,0,3.231-3.223,3.213,3.213,0,0,0-3.231,3.223m-59.063,0a3.225,3.225,0,1,0,3.223-3.223,3.213,3.213,0,0,0-3.223,3.223m-98.44,0a3.224,3.224,0,1,0,3.223-3.223,3.215,3.215,0,0,0-3.223,3.223m-19.69,0A3.224,3.224,0,1,0,42.6,77.932a3.211,3.211,0,0,0-3.219,3.223m59.065,0a3.224,3.224,0,1,0,3.223-3.223,3.213,3.213,0,0,0-3.223,3.223m-19.693,0a3.227,3.227,0,1,0,3.229-3.223,3.218,3.218,0,0,0-3.229,3.223m39.381,0a3.222,3.222,0,1,0,3.221-3.223,3.215,3.215,0,0,0-3.221,3.223m65.511,214.31a3.221,3.221,0,1,0-3.223,3.223,3.223,3.223,0,0,0,3.223-3.223M85.2,61.676A3.227,3.227,0,1,0,81.977,64.9,3.223,3.223,0,0,0,85.2,61.676m233.032,74.705a3.221,3.221,0,1,0,2.3,5.478c-.176-1.682-.387-3.336-.618-5a3.212,3.212,0,0,0-1.684-.482M104.89,61.676a3.224,3.224,0,1,0-3.225,3.225,3.221,3.221,0,0,0,3.225-3.225m19.684,0a3.222,3.222,0,1,0-3.223,3.225,3.219,3.219,0,0,0,3.223-3.225M295.322,81.155a3.222,3.222,0,0,0,6.373.668c-.672-1.241-1.382-2.474-2.1-3.7a3.164,3.164,0,0,0-1.04-.19,3.23,3.23,0,0,0-3.229,3.223m19.688,38.968a3.225,3.225,0,0,0,2.427,3.114c-.415-1.847-.879-3.675-1.359-5.5a3.2,3.2,0,0,0-1.068,2.384M65.515,61.676A3.224,3.224,0,1,0,62.29,64.9a3.223,3.223,0,0,0,3.225-3.225m157.5,0A3.224,3.224,0,1,0,219.8,64.9a3.221,3.221,0,0,0,3.217-3.225m19.688,0a3.224,3.224,0,1,0-3.223,3.225,3.223,3.223,0,0,0,3.223-3.225m19.688,0A3.223,3.223,0,1,0,259.17,64.9a3.22,3.22,0,0,0,3.223-3.225m-59.061,0a3.225,3.225,0,1,0-3.227,3.225,3.225,3.225,0,0,0,3.227-3.225m-39.375,0A3.225,3.225,0,1,0,160.73,64.9a3.223,3.223,0,0,0,3.227-3.225m19.684,0a3.221,3.221,0,1,0-3.223,3.225,3.221,3.221,0,0,0,3.223-3.225m-39.375,0A3.225,3.225,0,1,0,141.04,64.9a3.224,3.224,0,0,0,3.225-3.225M137.815,256.5a3.225,3.225,0,1,0,3.225-3.231,3.23,3.23,0,0,0-3.225,3.231m19.691,0a3.225,3.225,0,1,0,3.223-3.231,3.227,3.227,0,0,0-3.223,3.231m-39.377,0a3.222,3.222,0,1,0,3.221-3.231,3.229,3.229,0,0,0-3.221,3.231m78.752,0a3.225,3.225,0,1,0,3.223-3.231,3.227,3.227,0,0,0-3.223,3.231m-98.44,0a3.224,3.224,0,1,0,3.223-3.231,3.227,3.227,0,0,0-3.223,3.231m78.756,0a3.221,3.221,0,1,0,3.219-3.231A3.224,3.224,0,0,0,177.2,256.5M318.235,155.862a3.226,3.226,0,1,0,3.225,3.225,3.223,3.223,0,0,0-3.225-3.225M78.749,256.5a3.227,3.227,0,1,0,3.229-3.231,3.232,3.232,0,0,0-3.229,3.231M315.01,198.051a3.2,3.2,0,0,0,1.068,2.382c.48-1.819.944-3.651,1.359-5.491a3.207,3.207,0,0,0-2.427,3.109m3.225-22.706a3.226,3.226,0,1,0,1.684,5.964c.231-1.659.441-3.313.618-4.991a3.2,3.2,0,0,0-2.3-.972M282.077,256.5a3.223,3.223,0,1,0-3.219,3.227,3.22,3.22,0,0,0,3.219-3.227m-242.7,0a3.224,3.224,0,1,0,3.219-3.231,3.225,3.225,0,0,0-3.219,3.231m19.69,0a3.224,3.224,0,1,0,3.223-3.231,3.228,3.228,0,0,0-3.223,3.231m183.639,38.96a3.224,3.224,0,1,0-3.223,3.223,3.225,3.225,0,0,0,3.223-3.223M124.574,275.986a3.222,3.222,0,1,0-3.223,3.221,3.229,3.229,0,0,0,3.223-3.221m19.691,0a3.225,3.225,0,1,0-3.225,3.221,3.234,3.234,0,0,0,3.225-3.221m39.375,0a3.221,3.221,0,1,0-3.223,3.221,3.231,3.231,0,0,0,3.223-3.221m-19.684,0a3.225,3.225,0,1,0-3.227,3.221,3.233,3.233,0,0,0,3.227-3.221m-78.754,0a3.227,3.227,0,1,0-3.225,3.221,3.233,3.233,0,0,0,3.225-3.221M216.57,256.5a3.224,3.224,0,1,0,3.231-3.231,3.226,3.226,0,0,0-3.231,3.231M104.89,275.986a3.224,3.224,0,1,0-3.225,3.221,3.23,3.23,0,0,0,3.225-3.221m-45.823,0a3.224,3.224,0,1,0,3.223-3.234,3.226,3.226,0,0,0-3.223,3.234m203.326,0a3.223,3.223,0,1,0-3.223,3.221,3.23,3.23,0,0,0,3.223-3.221M124.574,314.95a3.215,3.215,0,0,0-6.326-.82c2.059.561,4.134,1.1,6.221,1.586a2.676,2.676,0,0,0,.105-.766m32.933-136.381a3.225,3.225,0,1,0,3.223-3.223,3.229,3.229,0,0,0-3.223,3.223m65.511,97.417a3.224,3.224,0,1,0-3.217,3.221,3.231,3.231,0,0,0,3.217-3.221m-19.686,0a3.225,3.225,0,1,0-3.227,3.221,3.234,3.234,0,0,0,3.227-3.221m-3.227,35.737a3.219,3.219,0,0,0-3.223,3.227,3.436,3.436,0,0,0,.1.766c2.1-.484,4.173-1.025,6.236-1.586a3.226,3.226,0,0,0-3.11-2.407m-42.6,3.227a3.225,3.225,0,1,0,3.223-3.227,3.225,3.225,0,0,0-3.223,3.227M282.077,61.676a3.223,3.223,0,1,0-3.219,3.225,3.217,3.217,0,0,0,3.219-3.225M137.815,314.95a3.225,3.225,0,1,0,3.225-3.227,3.227,3.227,0,0,0-3.225,3.227m45.825,0a3.221,3.221,0,1,0-3.223,3.221,3.22,3.22,0,0,0,3.223-3.221m39.377-19.485a3.224,3.224,0,1,0-3.217,3.223,3.223,3.223,0,0,0,3.217-3.223M22.909,84.375a3.221,3.221,0,1,0-1.049-6.253q-1.07,1.841-2.1,3.7a3.218,3.218,0,0,0,3.148,2.551m16.468-22.7A3.224,3.224,0,1,0,42.6,58.453a3.221,3.221,0,0,0-3.219,3.223m124.58,233.789a3.225,3.225,0,1,0-3.227,3.223,3.225,3.225,0,0,0,3.227-3.223m-59.067,0a3.224,3.224,0,1,0-3.225,3.223,3.223,3.223,0,0,0,3.225-3.223m39.375,0a3.225,3.225,0,1,0-3.225,3.223,3.226,3.226,0,0,0,3.225-3.223m59.067,0a3.225,3.225,0,1,0-3.227,3.223,3.227,3.227,0,0,0,3.227-3.223m-78.758,0a3.222,3.222,0,1,0-3.223,3.223,3.221,3.221,0,0,0,3.223-3.223m-39.372,0a3.227,3.227,0,1,0-3.225,3.223,3.225,3.225,0,0,0,3.225-3.223m157.5-19.479a3.224,3.224,0,1,0-3.223,3.221,3.232,3.232,0,0,0,3.223-3.221M98.442,198.051a3.224,3.224,0,1,0,3.223-3.229,3.221,3.221,0,0,0-3.223,3.229m19.688,0a3.222,3.222,0,1,0,3.221-3.229,3.223,3.223,0,0,0-3.221,3.229m-39.381,0a3.227,3.227,0,1,0,3.229-3.229,3.226,3.226,0,0,0-3.229,3.229m78.758,0a3.225,3.225,0,1,0,3.223-3.229,3.221,3.221,0,0,0-3.223,3.229m19.691,0a3.221,3.221,0,1,0,3.219-3.229,3.218,3.218,0,0,0-3.219,3.229m-118.131,0a3.224,3.224,0,1,0,3.223-3.229,3.222,3.222,0,0,0-3.223,3.229m78.749,0a3.225,3.225,0,1,0,3.225-3.229,3.224,3.224,0,0,0-3.225,3.229m137.815,19.481a3.223,3.223,0,1,0,3.227-3.223,3.223,3.223,0,0,0-3.227,3.223M39.377,198.051a3.224,3.224,0,1,0,3.219-3.229,3.219,3.219,0,0,0-3.219,3.229m216.57,19.481a3.223,3.223,0,1,0,3.223-3.223,3.22,3.22,0,0,0-3.223,3.223m39.375,0a3.224,3.224,0,1,0,3.229-3.223,3.225,3.225,0,0,0-3.229,3.223M19.688,198.051a3.225,3.225,0,1,0,3.221-3.229,3.223,3.223,0,0,0-3.221,3.229m-13.238,0a3.2,3.2,0,0,0-2.433-3.109c.417,1.84.884,3.672,1.361,5.491a3.2,3.2,0,0,0,1.072-2.382m32.927-19.483a3.224,3.224,0,1,0,3.219-3.223,3.227,3.227,0,0,0-3.219,3.223m59.065,0a3.224,3.224,0,1,0,3.223-3.223,3.229,3.229,0,0,0-3.223,3.223m137.815,38.964a3.224,3.224,0,1,0,3.225-3.223,3.219,3.219,0,0,0-3.225,3.223M59.067,178.568a3.224,3.224,0,1,0,3.223-3.223,3.23,3.23,0,0,0-3.223,3.223m137.815,19.483a3.225,3.225,0,1,0,3.223-3.229,3.221,3.221,0,0,0-3.223,3.229M118.13,178.568a3.222,3.222,0,1,0,3.221-3.223,3.231,3.231,0,0,0-3.221,3.223m19.686,0a3.225,3.225,0,1,0,3.225-3.223,3.231,3.231,0,0,0-3.225,3.223m-59.067,0a3.227,3.227,0,1,0,3.229-3.223,3.233,3.233,0,0,0-3.229,3.223m157.509,19.483a3.224,3.224,0,1,0,3.225-3.229,3.221,3.221,0,0,0-3.225,3.229m19.69,0a3.223,3.223,0,1,0,3.223-3.229,3.222,3.222,0,0,0-3.223,3.229m-39.377,0a3.224,3.224,0,1,0,3.231-3.229,3.22,3.22,0,0,0-3.231,3.229M19.688,178.568a3.225,3.225,0,1,0,3.221-3.223,3.231,3.231,0,0,0-3.221,3.223m275.635,19.483a3.224,3.224,0,1,0,3.229-3.229,3.227,3.227,0,0,0-3.229,3.229m-19.691,0a3.223,3.223,0,1,0,3.227-3.229,3.225,3.225,0,0,0-3.227,3.229m-19.684,38.964a3.223,3.223,0,1,0,3.223-3.229,3.221,3.221,0,0,0-3.223,3.229m-78.749,0a3.221,3.221,0,1,0,3.219-3.229,3.217,3.217,0,0,0-3.219,3.229m-19.691,0a3.225,3.225,0,1,0,3.223-3.229,3.22,3.22,0,0,0-3.223,3.229m39.375,0a3.225,3.225,0,1,0,3.223-3.229,3.22,3.22,0,0,0-3.223,3.229m-59.067,0a3.225,3.225,0,1,0,3.225-3.229,3.223,3.223,0,0,0-3.225,3.229m78.754,0a3.224,3.224,0,1,0,3.231-3.229,3.219,3.219,0,0,0-3.231,3.229m19.688,0a3.224,3.224,0,1,0,3.225-3.229,3.221,3.221,0,0,0-3.225,3.229m-196.88,0a3.224,3.224,0,1,0,3.219-3.229,3.218,3.218,0,0,0-3.219,3.229m19.69,0a3.224,3.224,0,1,0,3.223-3.229,3.221,3.221,0,0,0-3.223,3.229m59.063,0a3.222,3.222,0,1,0,3.221-3.229,3.222,3.222,0,0,0-3.221,3.229M236.257,256.5a3.224,3.224,0,1,0,3.225-3.231,3.227,3.227,0,0,0-3.225,3.231m39.373-19.489a3.223,3.223,0,1,0,3.227-3.229,3.224,3.224,0,0,0-3.227,3.229m-177.189,0a3.224,3.224,0,1,0,3.223-3.229,3.22,3.22,0,0,0-3.223,3.229m-19.693,0a3.227,3.227,0,1,0,3.229-3.229,3.225,3.225,0,0,0-3.229,3.229M39.377,217.533A3.224,3.224,0,1,0,42.6,214.31a3.217,3.217,0,0,0-3.219,3.223m118.13,0a3.225,3.225,0,1,0,3.223-3.223,3.219,3.219,0,0,0-3.223,3.223m-19.691,0a3.225,3.225,0,1,0,3.225-3.223,3.222,3.222,0,0,0-3.225,3.223m-19.686,0a3.222,3.222,0,1,0,3.221-3.223,3.221,3.221,0,0,0-3.221,3.223m78.752,0a3.225,3.225,0,1,0,3.223-3.223,3.219,3.219,0,0,0-3.223,3.223m-19.684,0a3.221,3.221,0,1,0,3.219-3.223,3.216,3.216,0,0,0-3.219,3.223m-78.756,0a3.224,3.224,0,1,0,3.223-3.223,3.219,3.219,0,0,0-3.223,3.223m157.5,38.972a3.223,3.223,0,1,0,3.223-3.231,3.228,3.228,0,0,0-3.223,3.231M26.138,237.016a3.223,3.223,0,0,0-6.377-.67q1.025,1.872,2.1,3.7a3.05,3.05,0,0,0,1.049.191,3.224,3.224,0,0,0,3.229-3.223m-6.45-19.483a3.225,3.225,0,1,0,3.221-3.223,3.221,3.221,0,0,0-3.221,3.223m196.882,0a3.224,3.224,0,1,0,3.231-3.223,3.218,3.218,0,0,0-3.231,3.223m-157.5,0a3.224,3.224,0,1,0,3.223-3.223,3.22,3.22,0,0,0-3.223,3.223m19.682,0a3.227,3.227,0,1,0,3.229-3.223,3.224,3.224,0,0,0-3.229,3.223" transform="translate(-127.723 -71.922)" fill="#008f8b"/>
            <path id="Trazado_114024" data-name="Trazado 114024" d="M1031.673,362.926a3.221,3.221,0,1,1-3.229,3.223,3.224,3.224,0,0,1,3.229-3.223m-22.918,3.223a3.221,3.221,0,1,0,3.225-3.223,3.221,3.221,0,0,0-3.225,3.223m-19.684,0a3.222,3.222,0,1,0,3.221-3.223,3.218,3.218,0,0,0-3.221,3.223m-249.5-19.481a3.2,3.2,0,0,0-1.072-2.382c-.477,1.823-.944,3.649-1.359,5.5a3.224,3.224,0,0,0,2.431-3.116m229.807,19.481a3.225,3.225,0,1,0,3.227-3.223,3.22,3.22,0,0,0-3.227,3.223m-233.034,3.219a3.221,3.221,0,1,0-1.687-5.96c-.229,1.659-.439,3.323-.617,5a3.2,3.2,0,0,0,2.3.965m95.217-3.219a3.225,3.225,0,1,0,3.223-3.223,3.219,3.219,0,0,0-3.223,3.223m59.067,0a3.226,3.226,0,1,0,3.225-3.223,3.22,3.22,0,0,0-3.225,3.223m-19.691,0a3.225,3.225,0,1,0,3.227-3.223,3.221,3.221,0,0,0-3.227,3.223m-19.686,0a3.222,3.222,0,1,0,3.221-3.223,3.22,3.22,0,0,0-3.221,3.223m59.068,0a3.221,3.221,0,1,0,3.219-3.223,3.215,3.215,0,0,0-3.219,3.223m98.435-19.481a3.221,3.221,0,1,0,3.225-3.227,3.231,3.231,0,0,0-3.225,3.227m-78.749,19.481a3.223,3.223,0,1,0,3.221-3.223,3.217,3.217,0,0,0-3.221,3.223m19.686,0a3.225,3.225,0,1,0,3.231-3.223,3.217,3.217,0,0,0-3.231,3.223m19.688-19.481a3.225,3.225,0,1,0,3.227-3.227,3.23,3.23,0,0,0-3.227,3.227m-59.059,0a3.221,3.221,0,1,0,3.219-3.227,3.225,3.225,0,0,0-3.219,3.227m19.686,0a3.223,3.223,0,1,0,3.221-3.227,3.226,3.226,0,0,0-3.221,3.227m-157.507,0a3.224,3.224,0,1,0,3.219-3.227,3.226,3.226,0,0,0-3.219,3.227m216.572,0a3.222,3.222,0,1,0,3.221-3.227,3.228,3.228,0,0,0-3.221,3.227m39.373,0a3.224,3.224,0,1,0,3.229-3.227,3.234,3.234,0,0,0-3.229,3.227m-78.753,0a3.225,3.225,0,1,0,3.231-3.227,3.227,3.227,0,0,0-3.231,3.227m-137.821,0a3.227,3.227,0,1,0,3.229-3.227,3.233,3.233,0,0,0-3.229,3.227m-19.68,0a3.223,3.223,0,1,0,3.221-3.227,3.227,3.227,0,0,0-3.221,3.227m39.372,0a3.225,3.225,0,1,0,3.223-3.227,3.229,3.229,0,0,0-3.223,3.227m59.067,0a3.226,3.226,0,1,0,3.225-3.227,3.23,3.23,0,0,0-3.225,3.227m-39.377,0a3.222,3.222,0,1,0,3.221-3.227,3.23,3.23,0,0,0-3.221,3.227m19.686,0a3.225,3.225,0,1,0,3.227-3.227,3.231,3.231,0,0,0-3.227,3.227m-118.128,0a3.225,3.225,0,1,0,3.221-3.227,3.23,3.23,0,0,0-3.221,3.227m59.061,19.481a3.227,3.227,0,1,0,3.229-3.223,3.223,3.223,0,0,0-3.229,3.223m-19.68,19.485a3.223,3.223,0,1,0,3.221-3.227,3.221,3.221,0,0,0-3.221,3.227m-39.381,0a3.225,3.225,0,1,0,3.221-3.227,3.224,3.224,0,0,0-3.221,3.227m59.061,0a3.227,3.227,0,1,0,3.229-3.227,3.227,3.227,0,0,0-3.229,3.227m-75.526,22.71a3.227,3.227,0,1,0,0-6.454,3.2,3.2,0,0,0-2.3.974c.178,1.676.389,3.33.617,4.989a3.247,3.247,0,0,0,1.688.49m95.217-22.71a3.225,3.225,0,1,0,3.223-3.227,3.223,3.223,0,0,0-3.223,3.227m118.129,19.479a3.225,3.225,0,1,0,3.231-3.223,3.229,3.229,0,0,0-3.231,3.223m-98.44-19.479a3.222,3.222,0,1,0,3.221-3.227,3.224,3.224,0,0,0-3.221,3.227m78.754,19.479a3.223,3.223,0,1,0,3.221-3.223,3.229,3.229,0,0,0-3.221,3.223m78.749,0a3.221,3.221,0,1,0,3.225-3.223,3.233,3.233,0,0,0-3.225,3.223m-39.375,0a3.225,3.225,0,1,0,3.227-3.223,3.232,3.232,0,0,0-3.227,3.223m59.065,0a3.224,3.224,0,1,0,3.229-3.223,3.236,3.236,0,0,0-3.229,3.223m-39.373,0a3.222,3.222,0,1,0,3.221-3.223,3.23,3.23,0,0,0-3.221,3.223M772.5,385.634a3.224,3.224,0,1,0,3.219-3.227,3.22,3.22,0,0,0-3.219,3.227m-39.377,0a3.225,3.225,0,1,0,3.223-3.227,3.222,3.222,0,0,0-3.223,3.227m19.688-19.485a3.225,3.225,0,1,0,3.221-3.223,3.22,3.22,0,0,0-3.221,3.223m275.635,19.485a3.224,3.224,0,1,0,3.229-3.227,3.228,3.228,0,0,0-3.229,3.227m-19.69,0a3.221,3.221,0,1,0,3.225-3.227,3.225,3.225,0,0,0-3.225,3.227M772.5,366.149a3.224,3.224,0,1,0,3.219-3.223,3.216,3.216,0,0,0-3.219,3.223m19.691,0a3.223,3.223,0,1,0,3.221-3.223,3.217,3.217,0,0,0-3.221,3.223m118.13,19.485a3.221,3.221,0,1,0,3.219-3.227,3.219,3.219,0,0,0-3.219,3.227m19.686,0a3.223,3.223,0,1,0,3.221-3.227,3.221,3.221,0,0,0-3.221,3.227m-59.069,0a3.225,3.225,0,1,0,3.227-3.227,3.225,3.225,0,0,0-3.227,3.227m118.133,0a3.222,3.222,0,1,0,3.221-3.227,3.222,3.222,0,0,0-3.221,3.227m-98.442,0a3.226,3.226,0,1,0,3.225-3.227,3.224,3.224,0,0,0-3.225,3.227m78.751,0a3.225,3.225,0,1,0,3.227-3.227,3.224,3.224,0,0,0-3.227,3.227m-19.688,0a3.225,3.225,0,1,0,3.231-3.227,3.221,3.221,0,0,0-3.231,3.227M831.562,249.257a3.225,3.225,0,1,0,3.223-3.227,3.219,3.219,0,0,0-3.223,3.227M989.071,307.7a3.222,3.222,0,1,0,3.221-3.223,3.211,3.211,0,0,0-3.221,3.223m-98.442-38.96a3.226,3.226,0,1,0,3.225-3.231,3.23,3.23,0,0,0-3.225,3.231m-39.377,0a3.222,3.222,0,1,0,3.221-3.231,3.231,3.231,0,0,0-3.221,3.231m19.686,0a3.225,3.225,0,1,0,3.227-3.231,3.232,3.232,0,0,0-3.227,3.231m59.069,0a3.223,3.223,0,1,0,3.221-3.231,3.227,3.227,0,0,0-3.221,3.231m39.373,0a3.225,3.225,0,1,0,3.227-3.231,3.231,3.231,0,0,0-3.227,3.231m26.136,0a3.222,3.222,0,1,0-3.223,3.229,3.224,3.224,0,0,0,3.223-3.229M933.227,233a3.23,3.23,0,0,0,3.11-2.418c-2.063-.559-4.134-1.093-6.236-1.575a3.283,3.283,0,0,0-.1.766A3.225,3.225,0,0,0,933.227,233m98.446,227.328a3.227,3.227,0,1,0,0,6.454,3,3,0,0,0,1.042-.193c.721-1.218,1.43-2.452,2.1-3.7a3.221,3.221,0,0,0-3.144-2.559M831.562,268.742a3.225,3.225,0,1,0,3.223-3.231,3.23,3.23,0,0,0-3.223,3.231m118.129,0a3.225,3.225,0,1,0,3.231-3.231,3.228,3.228,0,0,0-3.231,3.231m-157.5,0a3.223,3.223,0,1,0,3.221-3.231,3.227,3.227,0,0,0-3.221,3.231m19.68,0a3.227,3.227,0,1,0,3.229-3.231,3.233,3.233,0,0,0-3.229,3.231m98.449,0a3.221,3.221,0,1,0,3.219-3.231,3.225,3.225,0,0,0-3.219,3.231m59.059-19.485a3.225,3.225,0,1,0,3.227-3.227,3.22,3.22,0,0,0-3.227,3.227m-98.442-19.479a3.225,3.225,0,1,0,3.227-3.231,3.23,3.23,0,0,0-3.227,3.231m78.754,19.479a3.225,3.225,0,1,0,3.231-3.227,3.217,3.217,0,0,0-3.231,3.227m-137.821,0a3.227,3.227,0,1,0,3.229-3.227,3.223,3.223,0,0,0-3.229,3.227m78.758-19.479a3.226,3.226,0,1,0,3.225-3.231,3.229,3.229,0,0,0-3.225,3.231m19.691,0a3.221,3.221,0,1,0,3.219-3.231,3.224,3.224,0,0,0-3.219,3.231M854.473,233a3.224,3.224,0,0,0,3.223-3.227,2.712,2.712,0,0,0-.1-.766c-2.1.482-4.162,1.016-6.223,1.575a3.216,3.216,0,0,0,3.1,2.418m16.465,16.252a3.225,3.225,0,1,0,3.227-3.227,3.221,3.221,0,0,0-3.227,3.227m-19.686,0a3.222,3.222,0,1,0,3.221-3.227,3.22,3.22,0,0,0-3.221,3.227M910.32,405.114a3.221,3.221,0,1,0,3.219-3.223,3.227,3.227,0,0,0-3.219,3.223m0-155.857a3.221,3.221,0,1,0,3.219-3.227,3.215,3.215,0,0,0-3.219,3.227m19.686,0a3.223,3.223,0,1,0,3.221-3.227,3.216,3.216,0,0,0-3.221,3.227m-39.377,0a3.226,3.226,0,1,0,3.225-3.227,3.22,3.22,0,0,0-3.225,3.227m137.815,77.936a3.224,3.224,0,1,0,3.229-3.225,3.228,3.228,0,0,0-3.229,3.225m-98.438,0a3.223,3.223,0,1,0,3.221-3.225,3.22,3.22,0,0,0-3.221,3.225m-19.686,0a3.221,3.221,0,1,0,3.219-3.225,3.219,3.219,0,0,0-3.219,3.225m39.372,0a3.225,3.225,0,1,0,3.231-3.225,3.221,3.221,0,0,0-3.231,3.225m19.688,0a3.225,3.225,0,1,0,3.227-3.225,3.224,3.224,0,0,0-3.227,3.225m19.692,0a3.222,3.222,0,1,0,3.221-3.225,3.221,3.221,0,0,0-3.221,3.225m-98.442,0a3.226,3.226,0,1,0,3.225-3.225,3.223,3.223,0,0,0-3.225,3.225m-118.129,0a3.224,3.224,0,1,0,3.219-3.225,3.22,3.22,0,0,0-3.219,3.225m19.691,0a3.223,3.223,0,1,0,3.221-3.225,3.22,3.22,0,0,0-3.221,3.225m19.68,0a3.227,3.227,0,1,0,3.229-3.225,3.226,3.226,0,0,0-3.229,3.225m-59.061,0a3.225,3.225,0,1,0,3.221-3.225,3.224,3.224,0,0,0-3.221,3.225m118.128,0a3.225,3.225,0,1,0,3.227-3.225,3.225,3.225,0,0,0-3.227,3.225m-39.375,0a3.225,3.225,0,1,0,3.223-3.225,3.223,3.223,0,0,0-3.223,3.225m19.69,0a3.222,3.222,0,1,0,3.221-3.225,3.224,3.224,0,0,0-3.221,3.225m157.5-19.491a3.221,3.221,0,1,0,3.225-3.223,3.215,3.215,0,0,0-3.225,3.223m-78.749,0a3.223,3.223,0,1,0,3.221-3.223,3.21,3.21,0,0,0-3.221,3.223m-19.686,0a3.221,3.221,0,1,0,3.219-3.223,3.209,3.209,0,0,0-3.219,3.223m98.435,19.491a3.221,3.221,0,1,0,3.225-3.225,3.225,3.225,0,0,0-3.225,3.225M870.937,307.7a3.225,3.225,0,1,0,3.227-3.223,3.215,3.215,0,0,0-3.227,3.223m98.442,0a3.225,3.225,0,1,0,3.227-3.223,3.214,3.214,0,0,0-3.227,3.223m-19.688,0a3.225,3.225,0,1,0,3.231-3.223,3.211,3.211,0,0,0-3.231,3.223m-59.063,0a3.226,3.226,0,1,0,3.225-3.223,3.213,3.213,0,0,0-3.225,3.223m-98.438,0a3.223,3.223,0,1,0,3.221-3.223,3.21,3.21,0,0,0-3.221,3.223m-19.691,0a3.224,3.224,0,1,0,3.219-3.223A3.21,3.21,0,0,0,772.5,307.7m59.063,0a3.225,3.225,0,1,0,3.223-3.223,3.213,3.213,0,0,0-3.223,3.223m-19.691,0a3.227,3.227,0,1,0,3.229-3.223,3.216,3.216,0,0,0-3.229,3.223m39.381,0a3.222,3.222,0,1,0,3.221-3.223,3.214,3.214,0,0,0-3.221,3.223m65.511,214.31a3.221,3.221,0,1,0-3.223,3.221,3.222,3.222,0,0,0,3.223-3.221M818.324,288.223a3.227,3.227,0,1,0-3.225,3.223,3.223,3.223,0,0,0,3.225-3.223m233.031,74.7a3.221,3.221,0,1,0,2.305,5.478c-.179-1.68-.387-3.336-.618-5a3.219,3.219,0,0,0-1.687-.482m-213.343-74.7a3.225,3.225,0,1,0-3.227,3.223,3.222,3.222,0,0,0,3.227-3.223m19.684,0a3.222,3.222,0,1,0-3.223,3.223,3.218,3.218,0,0,0,3.223-3.223M1028.444,307.7a3.222,3.222,0,0,0,6.373.666c-.672-1.241-1.382-2.474-2.1-3.7a3.191,3.191,0,0,0-4.27,3.035m19.688,38.966a3.231,3.231,0,0,0,2.427,3.116c-.415-1.849-.876-3.676-1.357-5.5a3.2,3.2,0,0,0-1.07,2.382M798.637,288.223a3.223,3.223,0,1,0-3.225,3.223,3.223,3.223,0,0,0,3.225-3.223m157.5,0a3.225,3.225,0,1,0-3.22,3.223,3.223,3.223,0,0,0,3.22-3.223m19.688,0a3.225,3.225,0,1,0-3.223,3.223,3.224,3.224,0,0,0,3.223-3.223m19.686,0a3.222,3.222,0,1,0-3.223,3.223,3.219,3.219,0,0,0,3.223-3.223m-59.063,0a3.223,3.223,0,1,0-3.225,3.223,3.222,3.222,0,0,0,3.225-3.223m-39.371,0a3.226,3.226,0,1,0-3.227,3.223,3.225,3.225,0,0,0,3.227-3.223m19.682,0a3.221,3.221,0,1,0-3.223,3.223,3.221,3.221,0,0,0,3.223-3.223m-39.375,0a3.225,3.225,0,1,0-3.223,3.223,3.224,3.224,0,0,0,3.223-3.223m-6.45,194.828a3.225,3.225,0,1,0,3.227-3.23,3.228,3.228,0,0,0-3.227,3.23m19.691,0a3.226,3.226,0,1,0,3.225-3.23,3.227,3.227,0,0,0-3.225,3.23m-39.377,0a3.222,3.222,0,1,0,3.221-3.23,3.227,3.227,0,0,0-3.221,3.23m78.754,0a3.223,3.223,0,1,0,3.221-3.23,3.224,3.224,0,0,0-3.221,3.23m-98.444,0a3.225,3.225,0,1,0,3.223-3.23,3.226,3.226,0,0,0-3.223,3.23m78.758,0a3.221,3.221,0,1,0,3.219-3.23,3.222,3.222,0,0,0-3.219,3.23m141.035-100.644a3.227,3.227,0,1,0,3.227,3.227,3.225,3.225,0,0,0-3.227-3.227M811.871,483.051a3.227,3.227,0,1,0,3.229-3.23,3.23,3.23,0,0,0-3.229,3.23M1048.132,424.6a3.193,3.193,0,0,0,1.07,2.382c.481-1.819.942-3.653,1.357-5.493a3.209,3.209,0,0,0-2.427,3.11m3.223-22.708a3.227,3.227,0,1,0,1.687,5.964c.231-1.659.439-3.313.618-4.989a3.21,3.21,0,0,0-2.305-.974M1015.2,483.051a3.221,3.221,0,1,0-3.217,3.225,3.218,3.218,0,0,0,3.217-3.225m-242.7,0a3.224,3.224,0,1,0,3.219-3.23,3.223,3.223,0,0,0-3.219,3.23m19.691,0a3.223,3.223,0,1,0,3.221-3.23,3.224,3.224,0,0,0-3.221,3.23m183.639,38.96a3.225,3.225,0,1,0-3.223,3.221,3.225,3.225,0,0,0,3.223-3.221M857.7,502.531a3.222,3.222,0,1,0-3.223,3.221,3.227,3.227,0,0,0,3.223-3.221m19.691,0a3.225,3.225,0,1,0-3.223,3.221,3.233,3.233,0,0,0,3.223-3.221m39.375,0a3.221,3.221,0,1,0-3.223,3.221,3.231,3.231,0,0,0,3.223-3.221m-19.682,0a3.226,3.226,0,1,0-3.227,3.221,3.234,3.234,0,0,0,3.227-3.221m-78.756,0a3.227,3.227,0,1,0-3.225,3.221,3.233,3.233,0,0,0,3.225-3.221m131.367-19.479a3.225,3.225,0,1,0,3.231-3.23,3.224,3.224,0,0,0-3.231,3.23m-111.68,19.479a3.225,3.225,0,1,0-3.227,3.221,3.232,3.232,0,0,0,3.227-3.221m-45.822,0a3.223,3.223,0,1,0,3.221-3.234,3.223,3.223,0,0,0-3.221,3.234m203.324,0a3.222,3.222,0,1,0-3.223,3.221,3.229,3.229,0,0,0,3.223-3.221M857.7,541.5a3.215,3.215,0,0,0-6.326-.822c2.061.563,4.133,1.1,6.223,1.586a2.726,2.726,0,0,0,.1-.764m32.933-136.383a3.226,3.226,0,1,0,3.225-3.223,3.232,3.232,0,0,0-3.225,3.223m65.513,97.417a3.225,3.225,0,1,0-3.22,3.221,3.233,3.233,0,0,0,3.22-3.221m-19.69,0a3.223,3.223,0,1,0-3.225,3.221,3.231,3.231,0,0,0,3.225-3.221m-3.225,35.739a3.217,3.217,0,0,0-3.221,3.227,3.3,3.3,0,0,0,.1.764c2.1-.482,4.173-1.023,6.236-1.586a3.226,3.226,0,0,0-3.11-2.4m-42.6,3.227a3.226,3.226,0,1,0,3.225-3.227,3.226,3.226,0,0,0-3.225,3.227M1015.2,288.223a3.221,3.221,0,1,0-3.217,3.223,3.215,3.215,0,0,0,3.217-3.223M870.937,541.5a3.225,3.225,0,1,0,3.227-3.227,3.228,3.228,0,0,0-3.227,3.227m45.825,0a3.221,3.221,0,1,0-3.223,3.221,3.22,3.22,0,0,0,3.223-3.221m39.379-19.485a3.225,3.225,0,1,0-3.22,3.221,3.224,3.224,0,0,0,3.22-3.221M756.031,310.92a3.22,3.22,0,1,0,0-6.441,3.308,3.308,0,0,0-1.051.188q-1.07,1.841-2.1,3.7a3.217,3.217,0,0,0,3.148,2.551m16.468-22.7A3.224,3.224,0,1,0,775.719,285a3.219,3.219,0,0,0-3.219,3.223M897.081,522.012a3.226,3.226,0,1,0-3.227,3.221,3.225,3.225,0,0,0,3.227-3.221m-59.069,0a3.225,3.225,0,1,0-3.227,3.221,3.223,3.223,0,0,0,3.227-3.221m39.375,0a3.225,3.225,0,1,0-3.223,3.221,3.224,3.224,0,0,0,3.223-3.221m59.065,0a3.223,3.223,0,1,0-3.225,3.221,3.223,3.223,0,0,0,3.225-3.221m-78.756,0a3.222,3.222,0,1,0-3.223,3.221,3.218,3.218,0,0,0,3.223-3.221m-39.372,0a3.227,3.227,0,1,0-3.225,3.221,3.224,3.224,0,0,0,3.225-3.221m157.5-19.481a3.225,3.225,0,1,0-3.223,3.221,3.233,3.233,0,0,0,3.223-3.221M831.562,424.6a3.225,3.225,0,1,0,3.223-3.231,3.223,3.223,0,0,0-3.223,3.231m19.69,0a3.222,3.222,0,1,0,3.221-3.231,3.224,3.224,0,0,0-3.221,3.231m-39.381,0a3.227,3.227,0,1,0,3.229-3.231,3.227,3.227,0,0,0-3.229,3.231m78.758,0a3.226,3.226,0,1,0,3.225-3.231,3.224,3.224,0,0,0-3.225,3.231m19.691,0a3.221,3.221,0,1,0,3.219-3.231,3.219,3.219,0,0,0-3.219,3.231m-118.13,0a3.223,3.223,0,1,0,3.221-3.231,3.221,3.221,0,0,0-3.221,3.231m78.747,0a3.225,3.225,0,1,0,3.227-3.231,3.225,3.225,0,0,0-3.227,3.231m137.817,19.481a3.221,3.221,0,1,0,3.225-3.223,3.221,3.221,0,0,0-3.225,3.223M772.5,424.6a3.224,3.224,0,1,0,3.219-3.231A3.22,3.22,0,0,0,772.5,424.6M989.071,444.08a3.222,3.222,0,1,0,3.221-3.223,3.218,3.218,0,0,0-3.221,3.223m39.373,0a3.224,3.224,0,1,0,3.229-3.223,3.225,3.225,0,0,0-3.229,3.223M752.81,424.6a3.225,3.225,0,1,0,3.221-3.231,3.224,3.224,0,0,0-3.221,3.231m-13.238,0a3.2,3.2,0,0,0-2.431-3.11c.415,1.84.882,3.674,1.359,5.493a3.2,3.2,0,0,0,1.072-2.382M772.5,405.114a3.224,3.224,0,1,0,3.219-3.223,3.228,3.228,0,0,0-3.219,3.223m59.063,0a3.225,3.225,0,1,0,3.223-3.223,3.231,3.231,0,0,0-3.223,3.223M969.379,444.08a3.225,3.225,0,1,0,3.227-3.223,3.221,3.221,0,0,0-3.227,3.223M792.19,405.114a3.223,3.223,0,1,0,3.221-3.223,3.229,3.229,0,0,0-3.221,3.223M930.006,424.6a3.223,3.223,0,1,0,3.221-3.231,3.221,3.221,0,0,0-3.221,3.231m-78.754-19.485a3.222,3.222,0,1,0,3.221-3.223,3.232,3.232,0,0,0-3.221,3.223m19.686,0a3.225,3.225,0,1,0,3.227-3.223,3.233,3.233,0,0,0-3.227,3.223m-59.067,0a3.227,3.227,0,1,0,3.229-3.223,3.235,3.235,0,0,0-3.229,3.223M969.379,424.6a3.225,3.225,0,1,0,3.227-3.231,3.224,3.224,0,0,0-3.227,3.231m19.692,0a3.222,3.222,0,1,0,3.221-3.231,3.222,3.222,0,0,0-3.221,3.231m-39.379,0a3.225,3.225,0,1,0,3.231-3.231,3.221,3.221,0,0,0-3.231,3.231M752.81,405.114a3.225,3.225,0,1,0,3.221-3.223,3.232,3.232,0,0,0-3.221,3.223M1028.444,424.6a3.224,3.224,0,1,0,3.229-3.231,3.228,3.228,0,0,0-3.229,3.231m-19.69,0a3.221,3.221,0,1,0,3.225-3.231,3.225,3.225,0,0,0-3.225,3.231m-19.684,38.964a3.222,3.222,0,1,0,3.221-3.231,3.221,3.221,0,0,0-3.221,3.231m-78.751,0a3.221,3.221,0,1,0,3.219-3.231,3.218,3.218,0,0,0-3.219,3.231m-19.691,0a3.226,3.226,0,1,0,3.225-3.231,3.223,3.223,0,0,0-3.225,3.231m39.377,0a3.223,3.223,0,1,0,3.221-3.231,3.22,3.22,0,0,0-3.221,3.231m-59.069,0a3.225,3.225,0,1,0,3.227-3.231,3.224,3.224,0,0,0-3.227,3.231m78.754,0a3.225,3.225,0,1,0,3.231-3.231,3.221,3.221,0,0,0-3.231,3.231m19.688,0a3.225,3.225,0,1,0,3.227-3.231,3.223,3.223,0,0,0-3.227,3.231m-196.88,0a3.224,3.224,0,1,0,3.219-3.231,3.219,3.219,0,0,0-3.219,3.231m19.691,0a3.223,3.223,0,1,0,3.221-3.231,3.22,3.22,0,0,0-3.221,3.231m59.061,0a3.222,3.222,0,1,0,3.221-3.231,3.223,3.223,0,0,0-3.221,3.231m118.128,19.489a3.225,3.225,0,1,0,3.227-3.23,3.227,3.227,0,0,0-3.227,3.23m39.375-19.489a3.221,3.221,0,1,0,3.225-3.231,3.224,3.224,0,0,0-3.225,3.231m-177.192,0a3.225,3.225,0,1,0,3.223-3.231,3.222,3.222,0,0,0-3.223,3.231m-19.691,0a3.227,3.227,0,1,0,3.229-3.231,3.226,3.226,0,0,0-3.229,3.231M772.5,444.08a3.224,3.224,0,1,0,3.219-3.223,3.216,3.216,0,0,0-3.219,3.223m118.129,0a3.226,3.226,0,1,0,3.225-3.223,3.22,3.22,0,0,0-3.225,3.223m-19.691,0a3.225,3.225,0,1,0,3.227-3.223,3.222,3.222,0,0,0-3.227,3.223m-19.686,0a3.222,3.222,0,1,0,3.221-3.223,3.22,3.22,0,0,0-3.221,3.223m78.754,0a3.223,3.223,0,1,0,3.221-3.223,3.217,3.217,0,0,0-3.221,3.223m-19.686,0a3.221,3.221,0,1,0,3.219-3.223,3.215,3.215,0,0,0-3.219,3.223m-78.758,0a3.225,3.225,0,1,0,3.223-3.223,3.22,3.22,0,0,0-3.223,3.223m157.509,38.972a3.222,3.222,0,1,0,3.221-3.23,3.225,3.225,0,0,0-3.221,3.23M759.26,463.563a3.223,3.223,0,0,0-6.377-.672q1.025,1.875,2.1,3.7a3.071,3.071,0,0,0,1.051.193,3.226,3.226,0,0,0,3.229-3.223m-6.45-19.483a3.225,3.225,0,1,0,3.221-3.223,3.221,3.221,0,0,0-3.221,3.223m196.882,0a3.225,3.225,0,1,0,3.231-3.223,3.218,3.218,0,0,0-3.231,3.223m-157.5,0a3.223,3.223,0,1,0,3.221-3.223,3.217,3.217,0,0,0-3.221,3.223m19.68,0a3.227,3.227,0,1,0,3.229-3.223,3.223,3.223,0,0,0-3.229,3.223" transform="translate(646.785 202.438)" fill="#00b4f6"/>
            <path id="Trazado_114025" data-name="Trazado 114025" d="M539.122,101.451c-5.213,0-7.758-3.991-10-7.5-2.039-3.195-3.8-5.953-7.165-5.953s-5.125,2.758-7.159,5.953c-2.245,3.514-4.789,7.5-10,7.5s-7.751-3.991-10-7.5c-2.035-3.195-3.8-5.953-7.159-5.953s-5.128,2.758-7.165,5.953c-2.245,3.514-4.783,7.5-10,7.5s-7.756-3.991-10-7.5c-2.037-3.195-3.792-5.953-7.161-5.953a1.683,1.683,0,0,1,0-3.366c5.213,0,7.76,3.991,10,7.507,2.037,3.2,3.8,5.952,7.161,5.952s5.127-2.756,7.163-5.952c2.241-3.516,4.785-7.507,10-7.507s7.754,3.991,9.994,7.507c2.037,3.2,3.8,5.952,7.161,5.952s5.127-2.756,7.163-5.952c2.241-3.516,4.787-7.507,10-7.507s7.755,3.991,10,7.507c2.035,3.2,3.794,5.952,7.163,5.952a1.682,1.682,0,0,1,0,3.364M505.639,127.8a1.68,1.68,0,0,0-1.682-1.682c-3.366,0-5.123-2.758-7.161-5.951-2.241-3.52-4.785-7.509-10-7.509s-7.755,3.989-10,7.509c-2.035,3.193-3.794,5.951-7.161,5.951s-5.125-2.758-7.161-5.951c-2.245-3.52-4.787-7.509-10-7.509a1.683,1.683,0,0,0,0,3.366c3.37,0,5.127,2.758,7.163,5.952,2.241,3.516,4.783,7.5,10,7.5s7.756-3.989,10-7.5c2.035-3.195,3.794-5.952,7.161-5.952s5.125,2.758,7.163,5.952c2.243,3.516,4.785,7.5,10,7.5a1.68,1.68,0,0,0,1.682-1.682" transform="translate(356.434 222.835)" fill="#3076b6"/>
            <path id="Trazado_114026" data-name="Trazado 114026" d="M165.871,341.765c-5.215,0-7.758-3.989-10-7.5-2.039-3.2-3.8-5.954-7.163-5.954s-5.127,2.758-7.161,5.954c-2.245,3.514-4.787,7.5-10,7.5s-7.751-3.989-9.994-7.5c-2.037-3.2-3.8-5.954-7.161-5.954s-5.126,2.758-7.165,5.954c-2.243,3.514-4.783,7.5-10,7.5s-7.755-3.989-10-7.5c-2.037-3.2-3.792-5.954-7.161-5.954a1.682,1.682,0,1,1,0-3.364c5.213,0,7.758,3.989,10,7.507,2.035,3.195,3.794,5.951,7.159,5.951s5.128-2.756,7.163-5.951c2.243-3.518,4.785-7.507,10-7.507s7.756,3.989,10,7.507c2.037,3.195,3.8,5.951,7.159,5.951s5.128-2.756,7.165-5.951c2.241-3.518,4.787-7.507,10-7.507s7.755,3.989,10,7.507c2.035,3.195,3.794,5.951,7.163,5.951a1.682,1.682,0,0,1,0,3.364m-33.483,26.353a1.681,1.681,0,0,0-1.682-1.68c-3.368,0-5.125-2.759-7.161-5.953-2.243-3.518-4.785-7.509-10-7.509s-7.755,3.991-10,7.509c-2.037,3.193-3.8,5.953-7.163,5.953s-5.123-2.759-7.161-5.953c-2.241-3.518-4.787-7.509-10-7.509a1.684,1.684,0,0,0,0,3.368c3.369,0,5.128,2.756,7.163,5.953,2.243,3.514,4.785,7.5,10,7.5s7.758-3.989,10-7.5c2.035-3.2,3.794-5.953,7.16-5.953s5.127,2.756,7.165,5.953c2.243,3.514,4.785,7.5,10,7.5a1.682,1.682,0,0,0,1.682-1.682" transform="translate(68.019 285.028)" fill="#008b8a"/>
            <path id="Trazado_114027" data-name="Trazado 114027" d="M829.295,204.512c-5.215,0-7.76-3.991-10-7.5-2.039-3.195-3.8-5.952-7.165-5.952s-5.125,2.758-7.16,5.952c-2.245,3.514-4.789,7.5-10,7.5s-7.751-3.991-10-7.5c-2.035-3.195-3.8-5.952-7.159-5.952s-5.128,2.758-7.165,5.952c-2.245,3.514-4.783,7.5-10,7.5s-7.756-3.991-10-7.5c-2.037-3.195-3.792-5.952-7.161-5.952a1.683,1.683,0,0,1,0-3.366c5.213,0,7.76,3.991,10,7.507,2.037,3.195,3.8,5.952,7.161,5.952s5.127-2.758,7.163-5.952c2.241-3.516,4.785-7.507,10-7.507s7.755,3.991,9.994,7.507c2.037,3.195,3.8,5.952,7.161,5.952s5.127-2.758,7.163-5.952c2.241-3.516,4.787-7.507,10-7.507s7.754,3.991,10,7.507c2.035,3.195,3.792,5.952,7.163,5.952a1.682,1.682,0,0,1,0,3.364M795.81,230.865a1.68,1.68,0,0,0-1.68-1.682c-3.368,0-5.125-2.758-7.163-5.952-2.241-3.518-4.785-7.507-10-7.507s-7.755,3.989-10,7.507c-2.035,3.195-3.794,5.952-7.161,5.952s-5.125-2.758-7.161-5.952c-2.243-3.518-4.787-7.507-10-7.507a1.683,1.683,0,0,0,0,3.366c3.37,0,5.127,2.758,7.163,5.952,2.241,3.516,4.783,7.5,10,7.5s7.757-3.989,10-7.5c2.035-3.195,3.794-5.952,7.161-5.952s5.125,2.758,7.163,5.952c2.245,3.516,4.785,7.5,10,7.5a1.68,1.68,0,0,0,1.68-1.682" transform="translate(649.946 164.633)" fill="#008b8a"/>
            <path id="Trazado_114028" data-name="Trazado 114028" d="M752.235,168.528a4.636,4.636,0,1,0-4.635-4.638,4.633,4.633,0,0,0,4.635,4.638m-18.25,0a4.636,4.636,0,1,0-4.635-4.638,4.636,4.636,0,0,0,4.635,4.638m18.25-19.554a4.636,4.636,0,1,0-4.635-4.637,4.631,4.631,0,0,0,4.635,4.637m-18.25,0a4.636,4.636,0,1,0-4.635-4.637,4.634,4.634,0,0,0,4.635,4.637m18.25-19.552a4.636,4.636,0,1,0-4.635-4.637,4.631,4.631,0,0,0,4.635,4.637m-18.25,0a4.636,4.636,0,1,0-4.635-4.637,4.634,4.634,0,0,0,4.635,4.637m18.25-19.552a4.636,4.636,0,1,0-4.635-4.638,4.633,4.633,0,0,0,4.635,4.638m-18.25,0a4.636,4.636,0,1,0-4.635-4.638,4.636,4.636,0,0,0,4.635,4.638" transform="translate(639.757 88.24)" fill="#009cec"/>
            <path id="Trazado_114029" data-name="Trazado 114029" d="M142.574,293.856a4.636,4.636,0,1,0-4.635-4.638,4.633,4.633,0,0,0,4.635,4.638m-18.25,0a4.636,4.636,0,1,0-4.635-4.638,4.633,4.633,0,0,0,4.635,4.638m18.25-19.553a4.636,4.636,0,1,0-4.635-4.638,4.635,4.635,0,0,0,4.635,4.638m-18.25,0a4.636,4.636,0,1,0-4.635-4.638,4.635,4.635,0,0,0,4.635,4.638m18.25-19.552a4.636,4.636,0,1,0-4.635-4.638,4.635,4.635,0,0,0,4.635,4.638m-18.25,0a4.636,4.636,0,1,0-4.635-4.638,4.635,4.635,0,0,0,4.635,4.638m18.25-19.554a4.636,4.636,0,1,0-4.635-4.638,4.633,4.633,0,0,0,4.635,4.638m-18.25,0a4.636,4.636,0,1,0-4.635-4.638,4.633,4.633,0,0,0,4.635,4.638" transform="translate(403.068 -152.589)" fill="#008b8a"/>
            <path id="Trazado_114030" data-name="Trazado 114030" d="M717.316,353.908a11.148,11.148,0,1,1-11.15-11.148,11.15,11.15,0,0,1,11.15,11.148" transform="translate(609.644 300.655)" fill="#3076b6"/>
            <path id="Trazado_114031" data-name="Trazado 114031" d="M260.518,95.9a11.148,11.148,0,1,1-11.148-11.148A11.148,11.148,0,0,1,260.518,95.9" transform="translate(532.606 56.518)" fill="#3076b6"/>
            <path id="Trazado_114032" data-name="Trazado 114032" d="M696.067,244.715a6.5,6.5,0,1,1-6.5-6.5,6.506,6.506,0,0,1,6.5,6.5" transform="translate(599.152 208.951)" fill="#008b8a"/>
            <path id="Trazado_114033" data-name="Trazado 114033" d="M595.685,82.344a6.5,6.5,0,1,1-6.5-6.5,6.5,6.5,0,0,1,6.5,6.5" transform="translate(523.5 35.525)" fill="#008b8a"/>
            <path id="Trazado_114034" data-name="Trazado 114034" d="M460.079,352.892a6.5,6.5,0,1,1-6.5-6.5,6.5,6.5,0,0,1,6.5,6.5" transform="translate(392.153 303.84)" fill="#008b8a"/>
            <path id="Trazado_114035" data-name="Trazado 114035" d="M82.63,258.364a6.5,6.5,0,1,1-6.5-6.5,6.506,6.506,0,0,1,6.5,6.5" transform="translate(-21.736 201.805)" fill="#008b8a"/>
            <path id="Trazado_114036" data-name="Trazado 114036" d="M661.211,112.152a10.567,10.567,0,1,1,10.568-10.567,10.58,10.58,0,0,1-10.568,10.567m0-14.708a4.141,4.141,0,1,0,4.141,4.141,4.147,4.147,0,0,0-4.141-4.141" transform="translate(570.717 79.836)" fill="#008b8a"/>
            <path id="Trazado_114037" data-name="Trazado 114037" d="M828.631,188.318A10.567,10.567,0,1,1,839.2,177.751a10.58,10.58,0,0,1-10.567,10.567m0-14.708a4.141,4.141,0,1,0,4.139,4.141,4.145,4.145,0,0,0-4.139-4.141" transform="translate(765.932 104.376)" fill="#008b8a"/>
            <path id="Trazado_114038" data-name="Trazado 114038" d="M209.012,203.135a10.567,10.567,0,1,1,10.567-10.566,10.578,10.578,0,0,1-10.567,10.566m0-14.708a4.141,4.141,0,1,0,4.141,4.141,4.147,4.147,0,0,0-4.141-4.141" transform="translate(1216.338 -85.266)" fill="#008b8a"/>
            <path id="Trazado_114039" data-name="Trazado 114039" d="M195.814,356.226a10.567,10.567,0,1,1,10.567-10.567,10.578,10.578,0,0,1-10.567,10.567m0-14.708a4.14,4.14,0,1,0,4.137,4.141,4.147,4.147,0,0,0-4.137-4.141" transform="translate(365.031 228.124)" fill="#3076b6"/>
          </g>
        </g>
      </g>
    </g>
  </g>
</svg>
