<svg xmlns="http://www.w3.org/2000/svg" xmlns:xlink="http://www.w3.org/1999/xlink" width="77.642" height="77.642" viewBox="0 0 77.642 77.642">
  <defs>
    <radialGradient id="radial-gradient" cx="0.076" cy="0.019" r="1.465" gradientTransform="translate(0.001)" gradientUnits="objectBoundingBox">
      <stop offset="0" stop-color="#f6f6f7"/>
      <stop offset="0.477" stop-color="#f9f9fa"/>
      <stop offset="0.715" stop-color="#fff"/>
    </radialGradient>
    <clipPath id="clip-path">
      <rect id="Rectángulo_348193" data-name="Rectángulo 348193" width="35.666" height="36.48" fill="none"/>
    </clipPath>
  </defs>
  <g id="Grupo_1009283" data-name="Grupo 1009283" transform="translate(-285 -3298)">
    <g id="Grupo_997988" data-name="Grupo 997988" transform="translate(285 3298)">
      <g id="Grupo_18423" data-name="Grupo 18423" transform="translate(0 0)">
        <g id="Grupo_18421" data-name="Grupo 18421">
          <g id="Grupo_18420" data-name="Grupo 18420">
            <g id="Grupo_18419" data-name="Grupo 18419">
              <path id="Trazado_40936" data-name="Trazado 40936" d="M272.264,2184.54a38.821,38.821,0,1,1-38.82-38.82A38.82,38.82,0,0,1,272.264,2184.54Z" transform="translate(-194.623 -2145.721)" fill="#fff"/>
            </g>
          </g>
        </g>
        <path id="Trazado_40937" data-name="Trazado 40937" d="M272.127,2184.39a38.82,38.82,0,1,0-38.82,38.822A38.667,38.667,0,0,0,272.127,2184.39Z" transform="translate(-194.485 -2145.571)" fill="url(#radial-gradient)"/>
        <path id="Trazado_40938" data-name="Trazado 40938" d="M261.8,2183.26a29.631,29.631,0,1,0-29.632,29.632A29.523,29.523,0,0,0,261.8,2183.26Z" transform="translate(-193.225 -2144.312)" fill="none" stroke="#ffa031" stroke-miterlimit="10" stroke-width="4"/>
        <g id="Grupo_18422" data-name="Grupo 18422" transform="translate(6.877 21.795)">
          <path id="Trazado_40939" data-name="Trazado 40939" d="M267.384,2164.488a38.825,38.825,0,0,1-66.839,38.66,38.7,38.7,0,0,0,66.839-38.66Z" transform="translate(-200.545 -2164.488)" fill="#eceef0"/>
        </g>
      </g>
    </g>
    <g id="Grupo_1009282" data-name="Grupo 1009282" transform="translate(305.999 3318.999)">
      <g id="Grupo_1009281" data-name="Grupo 1009281" transform="translate(0 0)" clip-path="url(#clip-path)">
        <path id="Trazado_718502" data-name="Trazado 718502" d="M33.78,37.212,14.1,35.174a.458.458,0,0,1-.408-.5l2.038-19.68a.457.457,0,0,1,.5-.407l19.68,2.037a.458.458,0,0,1,.408.5L34.282,36.8a.458.458,0,0,1-.5.408" transform="translate(-1.191 -1.269)" fill="#eef5f6"/>
        <path id="Trazado_718503" data-name="Trazado 718503" d="M25.663,29.873,6.653,35.355a.458.458,0,0,1-.567-.313L.6,16.032a.459.459,0,0,1,.313-.567l19.01-5.482a.458.458,0,0,1,.567.312l5.482,19.01a.459.459,0,0,1-.313.567" transform="translate(-0.051 -0.867)" fill="#ffdfc0"/>
        <path id="Trazado_718504" data-name="Trazado 718504" d="M26.454,29.306,20.972,10.3a.457.457,0,0,0-.566-.313l-1.812.522L23.6,27.88a.458.458,0,0,1-.313.567l-17.2,4.96.472,1.634a.456.456,0,0,0,.566.312l19.01-5.482a.457.457,0,0,0,.313-.566" transform="translate(-0.53 -0.867)" fill="#ffa031"/>
        <path id="Trazado_718505" data-name="Trazado 718505" d="M29.721,25H9.935a.457.457,0,0,1-.457-.457V4.761A.457.457,0,0,1,9.935,4.3H29.721a.457.457,0,0,1,.457.457V24.547a.457.457,0,0,1-.457.457" transform="translate(-0.825 -0.374)" fill="#94dbff"/>
        <path id="Trazado_718506" data-name="Trazado 718506" d="M37.662,16.8l-1.657-.172L33.9,36.982a.446.446,0,0,1-.09.229l1.726.179a.458.458,0,0,0,.5-.408L38.07,17.3a.458.458,0,0,0-.408-.5" transform="translate(-2.942 -1.447)" fill="#cbe5e8"/>
        <path id="Trazado_718507" data-name="Trazado 718507" d="M29.721,4.3h-1.68V22.409a.457.457,0,0,1-.457.457H9.478v1.68A.457.457,0,0,0,9.935,25H29.721a.457.457,0,0,0,.457-.457V4.761a.457.457,0,0,0-.457-.457" transform="translate(-0.825 -0.374)" fill="#4db1f0"/>
        <path id="Trazado_718508" data-name="Trazado 718508" d="M21.874,6.918H19.451a.392.392,0,0,1-.393-.392V.978a.392.392,0,0,1,.393-.392h2.423a.392.392,0,0,1,.392.392V6.527a.392.392,0,0,1-.392.392" transform="translate(-1.658 -0.051)" fill="#ffa031"/>
        <path id="Trazado_718509" data-name="Trazado 718509" d="M30.546,16.208l5.367.556a.457.457,0,0,1,.408.5L34.282,36.946a.457.457,0,0,1-.5.408L14.1,35.317a.457.457,0,0,1-.407-.5l.044-.428" transform="translate(-1.191 -1.41)" fill="none" stroke="#000" stroke-linecap="round" stroke-linejoin="round" stroke-width="1.17"/>
        <path id="Trazado_718510" data-name="Trazado 718510" d="M24.877,25.814l1.1,3.809a.458.458,0,0,1-.312.567L6.652,35.673a.457.457,0,0,1-.566-.313L.6,16.35a.458.458,0,0,1,.313-.567l7.51-2.166" transform="translate(-0.051 -1.185)" fill="none" stroke="#000" stroke-linecap="round" stroke-linejoin="round" stroke-width="1.17"/>
        <path id="Trazado_718511" data-name="Trazado 718511" d="M15.8,25H9.935a.457.457,0,0,1-.456-.457V4.761A.457.457,0,0,1,9.935,4.3h8" transform="translate(-0.825 -0.374)" fill="none" stroke="#000" stroke-linecap="round" stroke-linejoin="round" stroke-width="1.17"/>
        <path id="Trazado_718512" data-name="Trazado 718512" d="M28.775,4.3h1.779a.458.458,0,0,1,.458.457V24.546a.458.458,0,0,1-.458.457h-11.5" transform="translate(-1.658 -0.374)" fill="none" stroke="#000" stroke-linecap="round" stroke-linejoin="round" stroke-width="1.17"/>
        <line id="Línea_2881" data-name="Línea 2881" x2="3.842" transform="translate(20.782 3.929)" fill="none" stroke="#000" stroke-linecap="round" stroke-linejoin="round" stroke-width="1.17"/>
        <path id="Rectángulo_348192" data-name="Rectángulo 348192" d="M.429,0H2.777a.43.43,0,0,1,.43.43V5.9a.429.429,0,0,1-.429.429H.429A.429.429,0,0,1,0,5.9V.429A.429.429,0,0,1,.429,0Z" transform="translate(17.4 0.535)" fill="none" stroke="#000" stroke-linecap="round" stroke-linejoin="round" stroke-width="1.17"/>
        <line id="Línea_2882" data-name="Línea 2882" x2="7.339" transform="translate(15.335 10.291)" fill="none" stroke="#000" stroke-linecap="round" stroke-linejoin="round" stroke-width="1.17"/>
        <line id="Línea_2883" data-name="Línea 2883" x2="14.572" transform="translate(11.718 13.453)" fill="none" stroke="#000" stroke-linecap="round" stroke-linejoin="round" stroke-width="1.17"/>
        <line id="Línea_2884" data-name="Línea 2884" x2="14.572" transform="translate(11.718 19.777)" fill="none" stroke="#000" stroke-linecap="round" stroke-linejoin="round" stroke-width="1.17"/>
        <line id="Línea_2885" data-name="Línea 2885" x2="4.639" transform="translate(11.718 16.615)" fill="none" stroke="#000" stroke-linecap="round" stroke-linejoin="round" stroke-width="1.17"/>
        <line id="Línea_2886" data-name="Línea 2886" x2="7.287" transform="translate(19.004 16.615)" fill="none" stroke="#000" stroke-linecap="round" stroke-linejoin="round" stroke-width="1.17"/>
      </g>
    </g>
  </g>
</svg>
